/* XPM */
static char *cf612bec9a104d08a73723d72806e322Nb3i98VSICWOVRtW[] = {
/* columns rows colors chars-per-pixel */
"30 30 220 2 ",
"   c #2B0E0E",
".  c #33110D",
"X  c #351B16",
"o  c #451A10",
"O  c #442C15",
"+  c #492619",
"@  c #542416",
"#  c #592616",
"$  c #4A311D",
"%  c #50351F",
"&  c #5C321D",
"*  c #4D2822",
"=  c #533A24",
"-  c #5D3C2D",
";  c #573627",
":  c #693B29",
">  c #703B2B",
",  c #703924",
"<  c #663E35",
"1  c #773C33",
"2  c #5C432E",
"3  c #5D4333",
"4  c #5C4837",
"5  c #65412D",
"6  c #634936",
"7  c #654B3A",
"8  c #6A4E3D",
"9  c #694634",
"0  c #7B4433",
"q  c #734932",
"w  c #7B4B33",
"e  c #7B4C3A",
"r  c #724432",
"t  c #6C513D",
"y  c #74523D",
"u  c #7F523B",
"i  c #7B4E43",
"p  c #6D5442",
"a  c #7B5945",
"s  c #755A4A",
"d  c #7D5D4B",
"f  c #745744",
"g  c #765E50",
"h  c #7A6A4B",
"j  c #7B6B54",
"k  c #7B6556",
"l  c #883934",
"z  c #834F37",
"x  c #84463B",
"c  c #874C3B",
"v  c #93433F",
"b  c #8A533E",
"n  c #A4563F",
"m  c #835442",
"M  c #8A5444",
"N  c #855B44",
"B  c #825D49",
"V  c #895947",
"C  c #9A5D4B",
"Z  c #96594A",
"A  c #8E5D50",
"S  c #965F52",
"D  c #A15C4D",
"F  c #A35D55",
"G  c #85614D",
"H  c #8A604E",
"J  c #8A6045",
"K  c #93694F",
"L  c #96614F",
"P  c #836653",
"I  c #8C6553",
"U  c #846A55",
"Y  c #8B6A56",
"T  c #846C5B",
"R  c #8C6D5B",
"E  c #816659",
"W  c #946654",
"Q  c #9A6254",
"!  c #956853",
"~  c #9C6A55",
"^  c #936D5C",
"/  c #9A6C5A",
"(  c #9E675C",
")  c #8B735C",
"_  c #95735D",
"`  c #9B765E",
"'  c #A5634C",
"]  c #A26655",
"[  c #A46D5A",
"{  c #A96B5C",
"}  c #A56757",
"|  c #A3715C",
" . c #AC735F",
".. c #9D6E62",
"X. c #847161",
"o. c #8C7265",
"O. c #8D7769",
"+. c #8E7A6B",
"@. c #8D7962",
"#. c #957563",
"$. c #9A7563",
"%. c #957965",
"&. c #9B7A66",
"*. c #937769",
"=. c #957C6C",
"-. c #9C7B6B",
";. c #8F7B70",
":. c #957D73",
">. c #9C7C71",
",. c #A66E62",
"<. c #AB6F64",
"1. c #B36760",
"2. c #A47464",
"3. c #AC7364",
"4. c #A37966",
"5. c #A77669",
"6. c #AC7669",
"7. c #A37D6B",
"8. c #AC7C6D",
"9. c #AC7A64",
"0. c #B27362",
"q. c #B37C6C",
"w. c #B47869",
"e. c #B37D72",
"r. c #C17C70",
"t. c #9C826B",
"y. c #94896A",
"u. c #958273",
"i. c #9C8274",
"p. c #9B8976",
"a. c #9D947A",
"s. c #A3846E",
"d. c #AC836E",
"f. c #AB8369",
"g. c #A38473",
"h. c #AD8472",
"j. c #AC8B74",
"k. c #A38A7A",
"l. c #AD8A79",
"z. c #A28776",
"x. c #B38574",
"c. c #B38976",
"v. c #BA8C77",
"b. c #B5857A",
"n. c #BA867C",
"m. c #B48B7A",
"M. c #B98D7D",
"N. c #B98676",
"B. c #A79377",
"V. c #B4917E",
"C. c #BC927C",
"Z. c #BB9C7F",
"A. c #C0897B",
"S. c #978B83",
"D. c #A48D81",
"F. c #B18E80",
"G. c #BD8B84",
"H. c #AA9484",
"J. c #AD998A",
"K. c #B39484",
"L. c #BB9483",
"P. c #B39E84",
"I. c #BC9986",
"U. c #B5968A",
"Y. c #B59C8E",
"T. c #BC9B8C",
"R. c #BF928B",
"E. c #AD9B91",
"W. c #BB9E92",
"Q. c #B39E96",
"!. c #B4A08D",
"~. c #BCA28E",
"^. c #BCA295",
"/. c #BEA699",
"(. c #BBA89A",
"). c #BDAAA4",
"_. c #BAA6A5",
"`. c #B9B2A5",
"'. c #C19B8C",
"]. c #C39691",
"[. c #C3A294",
"{. c #C4A59B",
"}. c #C4AB9F",
"|. c #CAAA9E",
" X c #CAA994",
".X c #D2B49E",
"XX c #C6ACA2",
"oX c #CBAEA4",
"OX c #C9A0A3",
"+X c #C4B2A5",
"@X c #CBB5AC",
"#X c #C6B6A9",
"$X c #D3B3A7",
"%X c #D6B6AC",
"&X c #CDBDBB",
"*X c #C9BAB4",
"=X c #D3BEB4",
"-X c #DBBDB3",
";X c #D6B2B6",
":X c #BBC1B4",
">X c #C6C5B8",
",X c #D4C1B4",
"<X c #DAC2B6",
"1X c #DCC3BA",
"2X c #DBCBBB",
"3X c #D4C5BC",
"4X c #E3C9BB",
"5X c #DDCCC2",
"6X c #D5C9C6",
"7X c #DBD3CB",
"8X c #DBD7D8",
"9X c #D4CDD2",
"0X c #E4D1C3",
"qX c #E3D4CC",
"wX c #E2D9D3",
"eX c #EAE1DB",
"rX c #DCDCE0",
"tX c #DFE0E4",
"yX c #ECE7E5",
"uX c #F6F2F1",
/* pixels */
"eXqX7XyXwXE.!./.XX}.^.T.T.W.^.^././././.}.+X@X&X6X8XrX*XP./.",
"5X<X<XwX#XJ.!.~.[.^.T.U.U.U.U.T.T.W.W.W.[.{.XX@X&X9XrX8X#X#X",
"1X-X%X,X!.H.K.K.V.V.U.U.K.F.m.m.m.K.I.I.U.T.[.}.@X6X8XtX,Xv.",
"-X-X$X}.H.z.z.g.s.j.l.V.m.l.j.h.x.c.M.M.L.L.I.T.}.*X9XrX6Xd.",
"-X-X-X+XD.u.=.&.&.&.7.d.h.h.h.x.x.x.m.c.m.m.M.I.[.XX&X8X7XV.",
"-X<X5X+Xa.=.=.&.#._ _ $.4.d.x.c.m.M.v.L.V.M.M.I.[.{.@X6X7X$.",
"=X1X5XY.i.u.t.&.&.#._ &.7.7.j.l.x.c.v.L.L.L.I.[.{.{.oX6X8XJ.",
" Xv.v.$.*.u.k.g.&.#._ Y B a I $.7.h.x.v.M.L.'.{.XX|.oX1X7X).",
"q.D ] W ^ O.H.k.&.#.a 5 ; ; + O - A | 6.q.N.M.'.[.|.%X<X5X).",
"0.} } 2.&.=.D.z.&.Y y : < < - $ + # z [ 3.6.q.x.C.{.-X1X#XE.",
"{ 0.C / *.u.z.-.&.^ B : * . . ; @ , w ~ 3.[ M V ! d.%XqX+X).",
"<.D c 2.*.u.>.&.7.4./ A i < ; r # , b 6.q.c @ o @ : ` @X}.^.",
"b.F ,.m.O.:.-.&.7.7.5./ V m e > > 0 L b.5.@ .   + & , 4.C.0.",
"XX{ 5.H.:.:.-.&.7.8.8.2.( Q S S W / 5.G.8.: * X ; ; u 9.w.' ",
"3Xr.6.k.+.*.-.7.7.8.8.8.6.<.,.<.2.2.h.R.b.M 1 i m e / M.C.Z.",
"yXx.6.i.o.o.&.&.&.8.8.8.q.w.0.3.3.8.b.].n.,.Q M Q 4.b.[.P.B.",
"uX'.x.u.X.T %.&.7.7.8.8.6.0.{ Q 3.e.b.G.G.q.6.4.8.x.K.{./.P.",
"uX[.c.:.X.T %.&.&.4.5.6.3.<.] Z ] } 3.q.A.q.x.b.n.L.K.+.t.P.",
"yXi.s.+.T T ) _ %.$.2.| [  .3.M > , b C  .0.q.b.G.G.k.X.z.s.",
"8X-.g.X.j T R Y _ $.[ ~ | ~ / I m w w z [ [ 3.e.n.].J.Q._.).",
"7X>.g.T k P U U R ^ ~ K N N H B a a m W 8.8.3.q.N.].{.OX;X1X",
">X-.i.k g s h k P Y K q : e W / W I H ^ $.4.2.8.x.j.j.I.|.@X",
"S.-.i.k p 8 p s s G G 9 e m x 1 l F ] 5._ I 4.8.c.i.@.) p.p.",
";.>.g.E 8 3 3 6 6 8 y B / / Q Z v l l x ! P _ f.h.+X+X) j j ",
"=.>.>.o.s 2 - 3 3 6 t a K K Z M Z F 1.} V y _ f.j.2X6Xy.h u.",
"=.-.7.*.E 8 = = 2 2 p f B J N q r 0 C 3.2.G ` j.0XuXwX`.a.E.",
"*.&.&.#.T s 6 % $ $ 4 p d G W V m m ! / ^ Y s.~.qXeX7X=X#X(.",
") %.&.#.U s 8 2 = O = 6 p a Y ^ ..../ I Y t.$X<X4X2X,X}.(.(.",
"R $.4.%.R d p 7 2 % O = 7 p d I ^ 4.^ ^ #.[.4X0X2X3X#XXXW.t.",
"Y _ 2.$.^ G a p 7 2 = O $ - 8 9 y Y P B. X.X,X>X>X>X:X#X[._ "
};
