/* XPM */
static char * drawing_down_left_xpm[] = {
"50 50 131 2",
"  	c None",
". 	c #5A822E",
"+ 	c #5A812E",
"@ 	c #425E21",
"# 	c #5C3A11",
"$ 	c #60350F",
"% 	c #5F340F",
"& 	c #532E0D",
"* 	c #587F2D",
"= 	c #445C20",
"- 	c #60360F",
"; 	c #5E340F",
"> 	c #502C0D",
", 	c #4E2B0C",
"' 	c #4D2A0C",
") 	c #577E2C",
"! 	c #48551D",
"~ 	c #542E0D",
"{ 	c #4D2B0C",
"] 	c #4C501B",
"^ 	c #577D2D",
"/ 	c #4F4C1A",
"( 	c #522D0D",
"_ 	c #577D2C",
": 	c #504B18",
"< 	c #572F0D",
"[ 	c #514A18",
"} 	c #5D330F",
"| 	c #514918",
"1 	c #522E0C",
"2 	c #425F21",
"3 	c #504A18",
"4 	c #56300D",
"5 	c #446122",
"6 	c #504B19",
"7 	c #57300E",
"8 	c #456223",
"9 	c #4F4D19",
"0 	c #5F350F",
"a 	c #4F2C0C",
"b 	c #4C2A0B",
"c 	c #466423",
"d 	c #4D4F1B",
"e 	c #5C320E",
"f 	c #476624",
"g 	c #57310D",
"h 	c #486624",
"i 	c #4A531C",
"j 	c #476724",
"k 	c #49551D",
"l 	c #542F0D",
"m 	c #486724",
"n 	c #47571E",
"o 	c #46591F",
"p 	c #486725",
"q 	c #455A1F",
"r 	c #486824",
"s 	c #435C21",
"t 	c #552E0D",
"u 	c #552F0D",
"v 	c #476524",
"w 	c #45591F",
"x 	c #4D2B0B",
"y 	c #47581E",
"z 	c #57300D",
"A 	c #49541C",
"B 	c #4B521B",
"C 	c #58310E",
"D 	c #4D2A0B",
"E 	c #446222",
"F 	c #4D501A",
"G 	c #59310D",
"H 	c #5A320E",
"I 	c #4E2A0B",
"J 	c #436022",
"K 	c #4F4B19",
"L 	c #5B330E",
"M 	c #446021",
"N 	c #59320E",
"O 	c #435F21",
"P 	c #522D0C",
"Q 	c #5A812D",
"R 	c #59802E",
"S 	c #4F4C19",
"T 	c #587E2D",
"U 	c #59310E",
"V 	c #567C2C",
"W 	c #4E4E1A",
"X 	c #5D330E",
"Y 	c #557B2C",
"Z 	c #512C0C",
"` 	c #4E2A0C",
" .	c #4C2B0B",
"..	c #557A2B",
"+.	c #547A2B",
"@.	c #55792C",
"#.	c #58300E",
"$.	c #48571E",
"%.	c #58300D",
"&.	c #532E0C",
"*.	c #562F0D",
"=.	c #58310D",
"-.	c #5B320E",
";.	c #4F2B0C",
">.	c #5E340E",
",.	c #5C330E",
"'.	c #5F3610",
").	c #554416",
"!.	c #435D21",
"~.	c #554316",
"{.	c #46581E",
"].	c #4C511B",
"^.	c #4B521C",
"/.	c #48561D",
"(.	c #47561E",
"_.	c #46581F",
":.	c #465A1F",
"<.	c #445B20",
"[.	c #4A521C",
"}.	c #4E4D1A",
"|.	c #4B531C",
"1.	c #435D20",
"2.	c #577C2C",
"3.	c #496825",
"4.	c #466524",
"5.	c #476523",
"6.	c #456323",
"7.	c #59802D",
"8.	c #59812E",
"9.	c #54782B",
"0.	c #54792B",
". + @ @ # $ $ $ % &                                                                                 ",
". * @ = - $ $ ; > , '                                                                               ",
". ) @ ! $ $ $ ~ , , {                                                                               ",
". ) @ ] $ $ $ > , , ,                                                                               ",
". ^ @ / $ $ $ ( , , ,                                                                               ",
". _ @ : $ $ $ < , , ,                                                                               ",
". * @ [ $ $ $ } , , ,                                                                               ",
". + @ | $ $ $ $ 1 , ,                                                                               ",
". . 2 3 $ $ $ $ 4 , ,                                                                               ",
". . 5 6 $ $ $ $ 7 , ,                                                                               ",
". . 8 9 $ $ $ 0 a , , b                                                                             ",
". . c d $ $ $ e , , , ,                                                                             ",
". . f ] $ $ $ g , , ,                                                                               ",
". . h i $ $ $ 4 , , ,                                                                               ",
". . j k $ $ $ l , , ,                                                                               ",
". . m n $ $ $ & , , ,                                                                               ",
". . m o $ $ $ & , , ,                                                                               ",
". . p q $ $ $ & , , ,                                                                               ",
". . p = $ $ $ l , , ,                                                                               ",
". . r s $ $ $ ~ , , ,                                                                               ",
". . m = $ $ $ t , , ,                                                                               ",
". . f q $ $ $ u , , ,                                                                               ",
". . v w $ $ $ 4 , , , x                                                                             ",
". . c y $ $ $ z , , , '                                                                             ",
". . c A $ $ $ 7 , , , ,                                                                             ",
". . 8 B $ $ $ C , , , D                                                                             ",
". . E F $ $ $ G , , , '                                                                             ",
". . 5 9 $ $ $ H , , , I                                                                             ",
". . J K $ $ $ L , , , {                                                                             ",
". . M [ $ $ $ N , , , '                                                                             ",
". . O | $ $ $ P , , , I                                                                             ",
". . @ 3 $ $ ; , , , ,                                                                               ",
". Q @ : $ $ H , , , ,                                                                               ",
". R @ 6 $ $ 7 , , , ,                                                                               ",
". * @ S $ $ z , , , ,                                                                               ",
". T @ S $ $ 7 , , , ,                                                                               ",
". _ @ 9 $ $ U , , , ,                                                                               ",
". V @ W $ $ X , , , ,                                                                               ",
". Y @ d $ $ $ Z , , , I `                   I ` , I x x { I D                        .I I I  .      ",
". ..@ F $ $ $ U , , , , , , , , , , , , , , , , , , , , , , , , , , , , , , , , , , , , , , , , , ` ",
". +.@ ] $ $ $ $ u , , , , , , , , , , , , , , , , , , , , , , , , , , , , , , , , , , , , , , , , , ",
". @.@ i $ $ $ $ $ #.a , , , , , , , , , , , , , , , , , , , , , , , , , , , , , , , , , , , , , , , ",
". +.@ $.$ $ $ $ $ $ $ e %.u t l l & &.l u *.z 7 =.U H H -.U & ;., , , , , , , , , P U ; >.X ,.H U #.",
". V @ = '.$ $ $ $ $ $ $ $ $ $ $ $ $ $ $ $ $ $ $ $ $ $ $ $ $ $ 0 ,.-.U =.g U H ,.% $ $ $ $ $ $ $ $ $ ",
". * @ @ ).$ $ $ $ $ $ $ $ $ $ $ $ $ $ $ $ $ $ $ $ $ $ $ $ $ $ $ $ $ $ $ $ $ $ $ $ $ $ $ $ $ $ $ $ $ ",
". . 2 @ !.~.$ $ $ $ $ $ $ $ $ $ $ $ $ $ $ $ $ $ $ $ $ $ $ $ $ $ $ $ $ $ $ $ $ $ $ $ $ $ $ $ $ $ $ $ ",
". . h @ @ @ {.W 9 W ].^.i k /.(._.:.= = <.= :.y k [.] }.6 6 6 6 6 / W ].|.A /./.{._._.o = = 1.@ @ o ",
". . 2.3.2 @ @ @ 2 5 8 4.m r r r r r r r r 5.5.5.6.8 8 E 5 5 J @ @ @ @ @ @ @ @ @ @ @ @ @ @ @ @ @ @ @ ",
". . . . 7.T * 8.. . . . . . . . . . . . . . . . . . . . . . . . . 7.* 7.) ) V Y Y 9.9.9.9.9.9.0.Y Y ",
". . . . . . . . . . . . . . . . . . . . . . . . . . . . . . . . . . . . . . . . . . . . . . . . . . "};
