/* XPM */
static char * drawing_down_xpm[] = {
"50 50 86 1",
" 	c None",
".	c #4C2A0C",
"+	c #4D2B0B",
"@	c #4E2B0B",
"#	c #4E2A0C",
"$	c #4E2B0C",
"%	c #4E2A0B",
"&	c #4D2A0B",
"*	c #4D2A0C",
"=	c #4D2B0C",
"-	c #502D0B",
";	c #58300E",
">	c #60350F",
",	c #552F0D",
"'	c #522E0D",
")	c #59310E",
"!	c #5C330E",
"~	c #5D330E",
"{	c #56300E",
"]	c #512D0C",
"^	c #4F2B0D",
"/	c #4F2C0C",
"(	c #512C0C",
"_	c #4F2B0C",
":	c #542F0D",
"<	c #532E0D",
"[	c #522D0D",
"}	c #502C0C",
"|	c #5C330F",
"1	c #58310D",
"2	c #5E340E",
"3	c #5F350E",
"4	c #5D340F",
"5	c #5C320F",
"6	c #5B320E",
"7	c #5F350F",
"8	c #56300D",
"9	c #542E0C",
"0	c #532D0D",
"a	c #562F0D",
"b	c #5A320E",
"c	c #5F340F",
"d	c #48571E",
"e	c #4C501B",
"f	c #514918",
"g	c #554415",
"h	c #584114",
"i	c #584014",
"j	c #583F13",
"k	c #564315",
"l	c #544616",
"m	c #534617",
"n	c #524817",
"o	c #514A18",
"p	c #504B19",
"q	c #4E4D19",
"r	c #4E4D1A",
"s	c #4D4F1A",
"t	c #4F4B19",
"u	c #554416",
"v	c #593E13",
"w	c #593F14",
"x	c #564215",
"y	c #4E4E1A",
"z	c #4C4F1A",
"A	c #4C511B",
"B	c #4F4D19",
"C	c #425E21",
"D	c #446122",
"E	c #425F21",
"F	c #567C2C",
"G	c #557B2C",
"H	c #53792B",
"I	c #54782B",
"J	c #55792B",
"K	c #577E2C",
"L	c #587F2D",
"M	c #59812E",
"N	c #5A822E",
"O	c #5A812E",
"P	c #577E2D",
"Q	c #567C2B",
"R	c #54792B",
"S	c #52762A",
"T	c #527529",
"U	c #507429",
"                                                  ",
"                                                  ",
"                                                  ",
"                                                  ",
"                                                  ",
"                                                  ",
"                                                  ",
"                                                  ",
"                                                  ",
"                                                  ",
"                                                  ",
"                                                  ",
"                                                  ",
"                                                  ",
"                                                  ",
"                                                  ",
"                                                  ",
"                                                  ",
"                                                  ",
"                                                  ",
"                                                  ",
"                                                  ",
"                                                  ",
"                                                  ",
"                                                  ",
"                                                  ",
"                                                  ",
"                                                  ",
"                                                  ",
"                                                  ",
"                                                  ",
"                                                  ",
"                                                  ",
"                                                  ",
"                                                  ",
"                                                  ",
"                                                  ",
"                                                  ",
"                                                  ",
"         .++@+        ##$%$+#&@    %%    *@=+*@#  ",
"-@$$$$$$$$$$$$$$$$$$$$$$$$$$$$$$$$$$$$$$$$$$$$$$$+",
";$$$$$$$$$$$$$$$$$$$$$$$$$$$$$$$$$$$$$$$$$$$$$$$$$",
">,$$$$')!~{]$$$$$$$$$$$$$$^/(/$$$$$$$$$$$$_:<[]}$$",
">>|1)2>>>>>>3456666!~~427>>>>7689[//_}(0ab7>>>>>>c",
">>>>>>>>>>>>>>>>>>>>>>>>>>>>>>>>>>>>>>>>>>>>>>>>>>",
">>>>>>>>>>>>>>>>>>>>>>>>>>>>>>>>>>>>>>>>>>>>>>>>>>",
"defghiiijikklmnopqresrtfnlukivwiihxumnppppyrrzAAAB",
"CCCCCCCCCCCCDDDDDDDDDDECCCCCCCCCCCCCCCCCCCCCCCCCCC",
"FGHIJGGFKLMNNNNNNNNNNNNNNOLLLPKKQGGRIISSTUUUUUUUSS",
"NNNNNNNNNNNNNNNNNNNNNNNNNNNNNNNNNNNNNNNNNNNNNNNNNN"};
