/* XPM */
static char * ft_logo_xpm[] = {
"50 50 29 1",
" 	c #535353",
".	c #6F6F6F",
"+	c #6E6E6E",
"@	c #6D6D6D",
"#	c #646464",
"$	c #686868",
"%	c #626262",
"&	c #595959",
"*	c #565656",
"=	c #575757",
"-	c #5C5C5C",
";	c #5D5D5D",
">	c #606060",
",	c #676767",
"'	c #696969",
")	c #6B6B6B",
"!	c #6C6C6C",
"~	c #555555",
"{	c #545454",
"]	c #5B5B5B",
"^	c #5F5F5F",
"/	c #616161",
"(	c #5E5E5E",
"_	c #5A5A5A",
":	c #6A6A6A",
"<	c #585858",
"[	c #666666",
"}	c #656565",
"|	c #636363",
"                                                  ",
"                                                  ",
"  ..............................................  ",
"  ..............................................  ",
"  ...+...................................@#$+...  ",
"  ..%&+.+*=&-;>%#,')))))))))))+........!>~  {]!.  ",
"  .-  ;..^                    ;......!>{     #..  ",
"  +    /.!                    =....)^       #...  ",
"  $    >..;                    @.)({       #....  ",
"  ,_{ >...:                    %;         #.''..  ",
"  ..+).....]                             #.!~-!.  ",
"  .........-                            ;.+< %..  ",
"  .......+-                             *.'  ^..  ",
"  ......+]                               $.= ]..  ",
"  .....+_                                (./&[..  ",
"  ....+&                                 *......  ",
"  ....._                                 *......  ",
"  .....,                                 ~......  ",
"  ......&                                {......  ",
"  ......[                                 ......  ",
"  .......<                                ......  ",
"  .......}                                !.....  ",
"  ........=                               [.....  ",
"  ........]                               %.....  ",
"  .......#                                -.....  ",
"  ......){                                =.....  ",
"  .....+<                                  +....  ",
"  .....#                                   '....  ",
"  .....(                                  {:....  ",
"  .....&                                  }.....  ",
"  .....~                                 >......  ",
"  ....!                                 ].......  ",
"  ....,                                 ).......  ",
"  ..../                                 #.......  ",
"  ...+&                                 ].......  ",
"  ..!<                                   !......  ",
"  .+=                                    |......  ",
"  ..,                                    &......  ",
"  .../                                    !.....  ",
"  ....;                ([;*               %.....  ",
"  ....@               {!...:%_{           ;.....  ",
"  .....&              >.......@[(*        ].....  ",
"  ...../              !...'<!....%        ].....  ",
"  .....$             >...$  -....}        &.....  ",
"  .....+{           {!...;   [...'<*      <.....  ",
"  ......}|[$'!@+),}/#...+-[*<:.......!'[#//.....  ",
"  .........................)+...................  ",
"  ..............................................  ",
"                                                  ",
"                                                  "};
