/* XPM */
static char * drawing_left_xpm[] = {
"50 50 106 2",
"  	c None",
". 	c #5A822E",
"+ 	c #567C2C",
"@ 	c #425E21",
"# 	c #48561E",
"$ 	c #60350F",
"% 	c #57300E",
"& 	c #4F2C0B",
"* 	c #547A2B",
"= 	c #4C4F1A",
"- 	c #552F0D",
"; 	c #4E2B0C",
"> 	c #4D2B0B",
", 	c #54792A",
"' 	c #524918",
") 	c #5C330F",
"! 	c #554415",
"~ 	c #57310D",
"{ 	c #54792B",
"] 	c #584114",
"^ 	c #59320E",
"/ 	c #557A2B",
"( 	c #583F14",
"_ 	c #5E340E",
": 	c #557B2B",
"< 	c #593F13",
"[ 	c #532D0D",
"} 	c #593E14",
"| 	c #59310E",
"1 	c #577E2C",
"2 	c #593F14",
"3 	c #5D330E",
"4 	c #587F2D",
"5 	c #584014",
"6 	c #5D330F",
"7 	c #59812D",
"8 	c #574214",
"9 	c #562F0E",
"0 	c #5A812E",
"a 	c #425F22",
"b 	c #564315",
"c 	c #512C0C",
"d 	c #4E2A0C",
"e 	c #446021",
"f 	c #544516",
"g 	c #5F350F",
"h 	c #4E2B0B",
"i 	c #436022",
"j 	c #544617",
"k 	c #5D340F",
"l 	c #524817",
"m 	c #5B330E",
"n 	c #446122",
"o 	c #514A18",
"p 	c #5B320E",
"q 	c #504B19",
"r 	c #4F4D19",
"s 	c #4E4E1A",
"t 	c #4D4F1A",
"u 	c #446022",
"v 	c #4D4F1B",
"w 	c #5C330E",
"x 	c #425F21",
"y 	c #4D2B0C",
"z 	c #5A812D",
"A 	c #534717",
"B 	c #59812E",
"C 	c #4D2A0B",
"D 	c #58802E",
"E 	c #554416",
"F 	c #4E2B0D",
"G 	c #564214",
"H 	c #502C0C",
"I 	c #502D0C",
"J 	c #4D2A0C",
"K 	c #5A3E13",
"L 	c #4F2C0C",
"M 	c #577D2C",
"N 	c #56300D",
"O 	c #567C2B",
"P 	c #583F13",
"Q 	c #532E0D",
"R 	c #567B2B",
"S 	c #512D0C",
"T 	c #4F2B0C",
"U 	c #4E2A0B",
"V 	c #54782B",
"W 	c #53772B",
"X 	c #524818",
"Y 	c #53762A",
"Z 	c #514918",
"` 	c #527629",
" .	c #504B18",
"..	c #517529",
"+.	c #562F0D",
"@.	c #517429",
"#.	c #4F4C19",
"$.	c #507329",
"%.	c #5F340F",
"&.	c #4F7328",
"*.	c #542E0D",
"=.	c #507228",
"-.	c #522D0D",
";.	c #507429",
">.	c #4C501B",
",.	c #527529",
". + @ # $ $ $ $ % &                                                                                 ",
". * @ = $ $ $ - ; >                                                                                 ",
". , @ ' $ $ ) ; ; ;                                                                                 ",
". , @ ! $ $ ~ ; ; ;                                                                                 ",
". { @ ] $ $ ^ ; ; ;                                                                                 ",
". / @ ( $ $ _ ; ; ;                                                                                 ",
". : @ < $ $ $ [ ; ;                                                                                 ",
". + @ } $ $ $ | ; ;                                                                                 ",
". 1 @ 2 $ $ $ 3 ; ;                                                                                 ",
". 4 @ 5 $ $ $ 6 ; ; ;                                                                               ",
". 7 @ 8 $ $ $ 9 ; ; >                                                                               ",
". 0 a b $ $ $ c ; ; d                                                                               ",
". . e f $ $ g ; ; ; h                                                                               ",
". . i j $ $ k ; ; ; >                                                                               ",
". . i l $ $ m ; ; ;                                                                                 ",
". . n o $ $ p ; ; ;                                                                                 ",
". . i q $ $ p ; ; ;                                                                                 ",
". . n r $ $ p ; ; ;                                                                                 ",
". . n s $ $ p ; ; ;                                                                                 ",
". . n t $ $ ) ; ; ;                                                                                 ",
". . u v $ $ w ; ; ;                                                                                 ",
". . i r $ $ 3 ; ; ;                                                                                 ",
". . x q $ $ k ; ; ; d                                                                               ",
". . @ o $ $ _ ; ; ; y                                                                               ",
". z @ A $ $ g ; ; ; ;                                                                               ",
". B @ f $ $ g ; ; ; C                                                                               ",
". D @ E $ $ $ F ; ; d                                                                               ",
". 4 @ G $ $ $ H ; ; >                                                                               ",
". 4 @ ( $ $ $ I ; ; J                                                                               ",
". 1 @ K $ $ $ L ; ; ;                                                                               ",
". 1 @ } $ $ p ; ; ; h                                                                               ",
". M @ < $ $ N ; ; ;                                                                                 ",
". O @ P $ $ Q ; ; ;                                                                                 ",
". R @ ] $ $ S ; ; ;                                                                                 ",
". / @ b $ $ L ; ; ;                                                                                 ",
". { @ ! $ $ T ; ; ; U                                                                               ",
". V @ A $ $ T ; ; ; C                                                                               ",
". W @ X $ $ H ; ; ;                                                                                 ",
". Y @ Z $ $ c ; ; ;                                                                                 ",
". ` @  .$ $ Q ; ; ;                                                                                 ",
". ..@ q $ $ +.; ; ;                                                                                 ",
". @.@ #.$ $ | ; ; ; J                                                                               ",
". $.@ #.$ $ %.T ; ; C                                                                               ",
". &.@ r $ $ $ *.; ; d                                                                               ",
". =.@ s $ $ $ [ ; ; J                                                                               ",
". $.@ v $ $ $ -.; ; J                                                                               ",
". ;.@ t $ $ $ S ; ; C                                                                               ",
". ..@ >.$ $ $ L ; ; U                                                                               ",
". ..@ >.$ $ $ T ; ;                                                                                 ",
". ,.@ r $ $ %.; ; >                                                                                 "};
