/* XPM */
static char * drawing_right_down_left_xpm[] = {
"50 50 162 2",
"  	c None",
". 	c #5A822E",
"+ 	c #5A812E",
"@ 	c #425E21",
"# 	c #5D3A11",
"$ 	c #60350F",
"% 	c #5F340F",
"& 	c #542E0D",
"* 	c #4D2B0C",
"= 	c #4E2B0C",
"- 	c #58300E",
"; 	c #45591F",
"> 	c #557A2C",
", 	c #587F2D",
"' 	c #445C20",
") 	c #60360F",
"! 	c #5E340F",
"~ 	c #502C0D",
"{ 	c #4D2A0C",
"] 	c #59310E",
"^ 	c #435D20",
"/ 	c #547A2B",
"( 	c #577E2C",
"_ 	c #49551D",
": 	c #5A320E",
"< 	c #425D21",
"[ 	c #55792B",
"} 	c #4C501B",
"| 	c #4C2B0B",
"1 	c #5C330E",
"2 	c #54792A",
"3 	c #577D2D",
"4 	c #4F4C1A",
"5 	c #512C0D",
"6 	c #4D2B0B",
"7 	c #5D330E",
"8 	c #445B20",
"9 	c #54782B",
"0 	c #577D2C",
"a 	c #504B19",
"b 	c #56300D",
"c 	c #4E2A0B",
"d 	c #5E340E",
"e 	c #455A1F",
"f 	c #53782A",
"g 	c #504A18",
"h 	c #5D340F",
"i 	c #465A1F",
"j 	c #514918",
"k 	c #522D0C",
"l 	c #46591F",
"m 	c #425F21",
"n 	c #57300D",
"o 	c #46581E",
"p 	c #54792B",
"q 	c #446122",
"r 	c #557A2B",
"s 	c #456223",
"t 	c #4F4D19",
"u 	c #5F350F",
"v 	c #4C2A0B",
"w 	c #47561E",
"x 	c #567B2B",
"y 	c #466423",
"z 	c #4D4F1B",
"A 	c #5C320E",
"B 	c #48561E",
"C 	c #567C2B",
"D 	c #476624",
"E 	c #57310D",
"F 	c #4E2A0C",
"G 	c #49541C",
"H 	c #567D2D",
"I 	c #486624",
"J 	c #4A531C",
"K 	c #58300D",
"L 	c #4A521C",
"M 	c #587E2D",
"N 	c #476724",
"O 	c #542F0D",
"P 	c #58310D",
"Q 	c #4C511B",
"R 	c #486724",
"S 	c #47571E",
"T 	c #532E0D",
"U 	c #4E4E1A",
"V 	c #59802D",
"W 	c #5B320E",
"X 	c #486725",
"Y 	c #5A812D",
"Z 	c #4F2B0C",
"` 	c #514A18",
" .	c #425F22",
"..	c #486824",
"+.	c #435C21",
"@.	c #4D2A0B",
"#.	c #436022",
"$.	c #542F0E",
"%.	c #552F0D",
"&.	c #4F4C19",
"*.	c #476524",
"=.	c #4E4D1A",
"-.	c #47581E",
";.	c #5A310E",
">.	c #456222",
",.	c #57300E",
"'.	c #4B531C",
").	c #466322",
"!.	c #4B521B",
"~.	c #58310E",
"{.	c #48551D",
"].	c #456423",
"^.	c #446222",
"/.	c #4D501A",
"(.	c #5A310D",
"_.	c #476523",
":.	c #455920",
"<.	c #476623",
"[.	c #4F4B19",
"}.	c #446021",
"|.	c #552E0D",
"1.	c #435F21",
"2.	c #496724",
"3.	c #4F2C0C",
"4.	c #542E0C",
"5.	c #5D340E",
"6.	c #455A20",
"7.	c #4D4F1A",
"8.	c #5C320F",
"9.	c #58802D",
"0.	c #4B521C",
"a.	c #5D330F",
"b.	c #49561D",
"c.	c #49541D",
"d.	c #562F0E",
"e.	c #48571E",
"f.	c #4C511C",
"g.	c #476424",
"h.	c #455B1F",
"i.	c #456322",
"j.	c #567C2C",
"k.	c #435C20",
"l.	c #532E0C",
"m.	c #4E4D19",
"n.	c #59320E",
"o.	c #512D0C",
"p.	c #5F360F",
"q.	c #554316",
"r.	c #496825",
"s.	c #5F3610",
"t.	c #554415",
"u.	c #507429",
"v.	c #4B511C",
"w.	c #46581F",
"x.	c #445B1F",
"y.	c #4A6A25",
"z.	c #466524",
"A.	c #456323",
"B.	c #577C2C",
"C.	c #59812E",
"D.	c #577E2D",
"E.	c #557B2C",
". + @ @ # $ $ $ % &                                                           * = = - $ $ $ ; @ > . ",
". , @ ' ) $ $ ! ~ = {                                                         = = = ] $ $ $ ^ @ / . ",
". ( @ _ $ $ $ & = = *                                                         = = = : $ $ $ < @ [ . ",
". ( @ } $ $ $ ~ = = =                                                       | = = = 1 $ $ $ ^ @ 2 . ",
". 3 @ 4 $ $ $ 5 = = =                                                       6 = = = 7 $ $ $ 8 @ 9 . ",
". 0 @ a $ $ $ b = = =                                                       c = = = d $ $ $ e @ f . ",
". , @ g $ $ $ h = = =                                                       c = = = % $ $ $ i @ f . ",
". + @ j $ $ $ $ k = =                                                       6 = = = ] $ $ $ l @ 9 . ",
". . m g $ $ $ $ n = =                                                         = = = k $ $ $ o @ p . ",
". . q a $ $ $ $ - = =                                                         = = = = % $ $ o @ r . ",
". . s t $ $ $ u ~ = = v                                                       = = = = 1 $ $ w @ x . ",
". . y z $ $ $ A = = = *                                                       = = = = : $ $ B @ C . ",
". . D } $ $ $ E = = = F                                                       = = = = ] $ $ G @ H . ",
". . I J $ $ $ b = = =                                                         = = = = K $ $ L @ M . ",
". . N _ $ $ $ O = = =                                                         = = = = P $ $ Q @ , . ",
". . R S $ $ $ T = = =                                                         = = = = ] $ $ U @ V . ",
". . R l $ $ $ T = = =                                                         = = = = W $ $ 4 @ V . ",
". . X e $ $ $ T = = =                                                         = = = = 1 $ $ g @ Y . ",
". . X ' $ $ $ O = = =                                                         = = = Z u $ $ `  .. . ",
". . ..+.$ $ $ & = = =                                                       @.= = = T $ $ $ g #.. . ",
". . R ' $ $ $ $.= = =                                                       c = = = : $ $ $ g #.. . ",
". . D e $ $ $ %.= = =                                                       F = = = W $ $ $ &.q . . ",
". . *.; $ $ $ b = = = c                                                     = = = = : $ $ $ =.s . . ",
". . y -.$ $ $ n = = = {                                                     { = = = ;.$ $ $ } >.. . ",
". . y G $ $ $ ,.= = = =                                                     c = = = ] $ $ $ '.).. . ",
". . s !.$ $ $ ~.= = = @.                                                    * = = = P $ $ $ {.].. . ",
". . ^./.$ $ $ (.= = = {                                                     F = = = - $ $ $ -._.. . ",
". . q t $ $ $ W = = = c                                                     c = = = n $ $ $ :.<.. . ",
". . #.[.$ $ $ W = = = *                                                       = = = b $ $ $ 8 D . . ",
". . }.` $ $ $ : = = = {                                                       = = = |.$ $ $ ' R . . ",
". . 1.j $ $ $ T = = = @.                                                      = = = & $ $ $ +.2.. . ",
". . @ g $ $ $ 3.= = =                                                         = = = 4.$ $ $ 8 2.. . ",
". . @ g $ $ 5.= = = =                                                         = = = T $ $ $ 6.... . ",
". + @ t $ $ 1 = = = =                                                         = = = & $ $ $ o X . . ",
". V @ 7.$ $ 8.= = = =                                                         = = = & $ $ $ S X . . ",
". 9.@ 0.$ $ a.= = = =                                                         = = = |.$ $ $ b.R . . ",
". , @ c.$ $ % = = = =                                                         = = = d.$ $ $ c.R . . ",
". ( @ e.$ $ $ ~ = = =                                                       F = = = P $ $ $ J I . . ",
". M @ l $ $ $ |.= = = c F                   c F = c 6 6 * c @.              @.= = = A $ $ $ f.g.. . ",
". ( @ h.$ $ $ W = = = = = = = = = = = = = = = = = = = = = = = = = = = = = = = = = ~ $ $ $ $ } i.. . ",
". j.@ k.$ $ $ $ l.= = = = = = = = = = = = = = = = = = = = = = = = = = = = = = = = ] $ $ $ $ U q . . ",
". 3 @ ' $ $ $ $ u %.Z = = = = = = = = = = = = = = = = = = = = = = = = = = = = = %.$ $ $ $ $ m.m . . ",
". , @ h.$ $ $ $ $ $ u W E %.& O T T T T O %.b ,.- ] ;.W W n.k = = = = = = = o.(.$ $ $ $ $ $ 7.@ + . ",
". V @ h.$ $ $ $ $ $ $ $ $ $ $ $ $ $ $ $ $ $ $ $ $ $ $ $ $ $ $ % W ~.n ,.] 5.$ $ $ $ $ $ $ $ S @ , . ",
". . q ^ p.$ $ $ $ $ $ $ $ $ $ $ $ $ $ $ $ $ $ $ $ $ $ $ $ $ $ $ $ $ $ $ $ $ $ $ $ $ $ $ $ q.@ @ ( . ",
". . r.@ a $ $ $ $ $ $ $ $ $ $ $ $ $ $ $ $ $ $ $ $ $ $ $ $ $ $ $ $ $ $ $ $ $ $ $ $ $ $ s.t.^ @ m V . ",
". . u.@ @ o z =.&.a a =./.v.c.w w.x.' +.8 ' i -._ L } =.a a a a a a a t =.=.z Q } c.w ' @ @ @ r.. . ",
". . + y. .@ @ @ m q s z.R ................_._._.A.s s ^.q q #.@ @ @ @ @ @ @ @ @ @ @ @ @ @ 1.R B.. . ",
". . . . + ( , C.. . . . . . . . . . . . . . . . . . . . . . . . . V , D.( C E.E.E.E.E.j., . . . . . ",
". . . . . . . . . . . . . . . . . . . . . . . . . . . . . . . . . . . . . . . . . . . . . . . . . . "};
