/* XPM */
static char * drawing_right_xpm[] = {
"50 50 112 2",
"  	c None",
". 	c #4E2A0C",
"+ 	c #4E2B0C",
"@ 	c #5F340F",
"# 	c #60350F",
"$ 	c #4F4D19",
"% 	c #425E21",
"& 	c #527629",
"* 	c #5A822E",
"= 	c #4F2B0C",
"- 	c #4C501B",
"; 	c #52762A",
"> 	c #502B0C",
", 	c #4B511C",
"' 	c #517529",
") 	c #4E2A0B",
"! 	c #512D0C",
"~ 	c #517429",
"{ 	c #4D4F1A",
"] 	c #517328",
"^ 	c #532E0D",
"/ 	c #507229",
"( 	c #542E0D",
"_ 	c #507228",
": 	c #4D2A0B",
"< 	c #5F350F",
"[ 	c #507328",
"} 	c #5A320E",
"| 	c #504B19",
"1 	c #552F0D",
"2 	c #532D0D",
"3 	c #514A18",
"4 	c #52772A",
"5 	c #4F2C0C",
"6 	c #524918",
"7 	c #53782A",
"8 	c #534717",
"9 	c #53792B",
"0 	c #544516",
"a 	c #55792B",
"b 	c #502C0C",
"c 	c #564315",
"d 	c #557A2B",
"e 	c #512C0D",
"f 	c #574115",
"g 	c #557C2B",
"h 	c #542E0C",
"i 	c #583F13",
"j 	c #567C2B",
"k 	c #57300D",
"l 	c #593F13",
"m 	c #567D2D",
"n 	c #4E2B0B",
"o 	c #5B320E",
"p 	c #577D2C",
"q 	c #4D2B0B",
"r 	c #593F14",
"s 	c #587F2C",
"t 	c #4D2B0C",
"u 	c #512C0C",
"v 	c #584014",
"w 	c #587F2D",
"x 	c #564215",
"y 	c #58802D",
"z 	c #4E2B0D",
"A 	c #554416",
"B 	c #59802D",
"C 	c #534617",
"D 	c #5A812E",
"E 	c #4D2A0C",
"F 	c #524817",
"G 	c #5E340E",
"H 	c #514918",
"I 	c #425F22",
"J 	c #5D330F",
"K 	c #435F21",
"L 	c #5C330E",
"M 	c #4E4E1A",
"N 	c #446021",
"O 	c #436022",
"P 	c #5C330F",
"Q 	c #446122",
"R 	c #4F4C19",
"S 	c #4F4B19",
"T 	c #5C320E",
"U 	c #5C320F",
"V 	c #5E340F",
"W 	c #5F350E",
"X 	c #554316",
"Y 	c #425F21",
"Z 	c #572F0E",
"` 	c #574114",
" .	c #59812E",
"..	c #5E330F",
"+.	c #574014",
"@.	c #593E13",
"#.	c #577E2C",
"$.	c #58310E",
"%.	c #567C2C",
"&.	c #522D0D",
"*.	c #594013",
"=.	c #557A2C",
"-.	c #547A2B",
";.	c #59310E",
">.	c #584114",
",.	c #58310D",
"'.	c #54792B",
").	c #562F0D",
"!.	c #4F2D0B",
"~.	c #58300E",
"{.	c #48561E",
"].	c #557C2C",
"                                                                                . + + @ # # $ % & * ",
"                                                                                + + = # # # - % ; * ",
"                                                                              + + + > # # # , % ' * ",
"                                                                              ) + + ! # # # - % ~ * ",
"                                                                              . + + ! # # # { % ] * ",
"                                                                              . + + ^ # # # { % / * ",
"                                                                              . + + ( # # # $ % _ * ",
"                                                                              : + + = < # # $ % [ * ",
"                                                                              + + + + } # # | % ' * ",
"                                                                                + + + 1 # # | % ; * ",
"                                                                                + + + 2 # # 3 % ; * ",
"                                                                                + + + ! # # 3 % 4 * ",
"                                                                                + + + 5 # # 6 % 7 * ",
"                                                                              : + + + = # # 8 % 9 * ",
"                                                                              ) + + + 5 # # 0 % a * ",
"                                                                                + + + b # # c % d * ",
"                                                                                + + + e # # f % g * ",
"                                                                                + + + h # # i % j * ",
"                                                                                + + + k # # l % m * ",
"                                                                              n + + + o # # l % p * ",
"                                                                              q + + 5 < # # r % s * ",
"                                                                              t + + u # # # v % w * ",
"                                                                              q + + 5 # # # x % y * ",
"                                                                              . + + z # # # A % B * ",
"                                                                              : + + + # # # C % D * ",
"                                                                              E + + + @ # # F % * * ",
"                                                                              t + + + G # # H I * * ",
"                                                                              . + + + J # # | K * * ",
"                                                                                + + + L # # M N * * ",
"                                                                                + + + L # # { O * * ",
"                                                                                + + + P # # { Q * * ",
"                                                                                + + + L # # M Q * * ",
"                                                                                + + + o # # R Q * * ",
"                                                                                + + + o # # S Q * * ",
"                                                                                + + + T # # H Q * * ",
"                                                                                + + + U # # F O * * ",
"                                                                              ) + + + V # # C Q * * ",
"                                                                              : + + + W # # 0 O * * ",
"                                                                              E + + ! # # # X Y * * ",
"                                                                              n + + Z # # # ` %  .* ",
"                                                                              t + + ..# # # +.% w * ",
"                                                                                + + L # # # @.% #.* ",
"                                                                                + + $.# # # @.% %.* ",
"                                                                                + + &.# # # *.% =.* ",
"                                                                                + + + G # # v % -.* ",
"                                                                                + + + ;.# # >.% -.* ",
"                                                                                + + + ,.# # 0 % '.* ",
"                                                                                + + + J # # H % '.* ",
"                                                                                n + ).# # # - % d * ",
"                                                                                !.~.# # # # {.% ].* "};
