/* XPM */
static char * right_left_xpm[] = {
"50 50 152 2",
"  	c None",
". 	c #5A822E",
"+ 	c #5A812E",
"@ 	c #425E21",
"# 	c #5C3A11",
"$ 	c #60350F",
"% 	c #5F340F",
"& 	c #542E0D",
"* 	c #4D2B0C",
"= 	c #4E2B0C",
"- 	c #58300E",
"; 	c #45591F",
"> 	c #557A2C",
", 	c #587F2D",
"' 	c #445C20",
") 	c #60360F",
"! 	c #5E340F",
"~ 	c #502C0D",
"{ 	c #4D2A0C",
"] 	c #59310E",
"^ 	c #435D20",
"/ 	c #547A2B",
"( 	c #577E2C",
"_ 	c #48551D",
": 	c #5B320E",
"< 	c #425D21",
"[ 	c #55792B",
"} 	c #4C501B",
"| 	c #4C2B0B",
"1 	c #5C330E",
"2 	c #435C20",
"3 	c #54792A",
"4 	c #577D2D",
"5 	c #4F4C1A",
"6 	c #522D0D",
"7 	c #4E2A0B",
"8 	c #5D340E",
"9 	c #54782B",
"0 	c #577D2C",
"a 	c #504B18",
"b 	c #572F0D",
"c 	c #5E340E",
"d 	c #455B1F",
"e 	c #53782A",
"f 	c #514A18",
"g 	c #5D330F",
"h 	c #455A20",
"i 	c #514918",
"j 	c #522E0C",
"k 	c #4D2B0B",
"l 	c #46591F",
"m 	c #425F21",
"n 	c #504A18",
"o 	c #56300D",
"p 	c #522D0C",
"q 	c #46581E",
"r 	c #54792B",
"s 	c #446122",
"t 	c #504B19",
"u 	c #57300D",
"v 	c #47571E",
"w 	c #557A2B",
"x 	c #456223",
"y 	c #4F4D19",
"z 	c #5F350F",
"A 	c #4F2C0C",
"B 	c #4C2A0B",
"C 	c #48571E",
"D 	c #567B2B",
"E 	c #466423",
"F 	c #4D4F1B",
"G 	c #5C320E",
"H 	c #5A320E",
"I 	c #47561E",
"J 	c #567C2B",
"K 	c #476624",
"L 	c #57310D",
"M 	c #4E2A0C",
"N 	c #49551C",
"O 	c #486624",
"P 	c #4A531C",
"Q 	c #58300D",
"R 	c #4B531C",
"S 	c #587E2D",
"T 	c #476724",
"U 	c #49551D",
"V 	c #542F0D",
"W 	c #58310D",
"X 	c #486724",
"Y 	c #532E0D",
"Z 	c #4E4E1A",
"` 	c #59802D",
" .	c #486725",
"..	c #455A1F",
"+.	c #5A812D",
"@.	c #4F2B0C",
"#.	c #425F22",
"$.	c #486824",
"%.	c #435C21",
"&.	c #4D2A0B",
"*.	c #436022",
"=.	c #552E0D",
"-.	c #552F0D",
";.	c #4F4C19",
">.	c #476524",
",.	c #4E4D1A",
"'.	c #47581E",
").	c #5A310D",
"!.	c #4D4F1A",
"~.	c #456323",
"{.	c #49541C",
"].	c #57300E",
"^.	c #58310E",
"/.	c #4A521C",
"(.	c #466322",
"_.	c #4B521B",
":.	c #466424",
"<.	c #446222",
"[.	c #4C4F1A",
"}.	c #59310D",
"|.	c #476523",
"1.	c #562F0E",
"2.	c #5B330E",
"3.	c #445B20",
"4.	c #476723",
"5.	c #446021",
"6.	c #524918",
"7.	c #435F21",
"8.	c #4F2B0D",
"9.	c #5D330E",
"0.	c #532E0C",
"a.	c #445B1F",
"b.	c #496724",
"c.	c #59812D",
"d.	c #5A310E",
"e.	c #577E2D",
"f.	c #4C511B",
"g.	c #557C2C",
"h.	c #48561E",
"i.	c #5C330F",
"j.	c #476424",
"k.	c #557B2C",
"l.	c #456322",
"m.	c #55792C",
"n.	c #54782A",
"o.	c #53772A",
"p.	c #4F4B19",
"q.	c #435D21",
"r.	c #587F2C",
"s.	c #512C0D",
"t.	c #5C3B12",
"u.	c #59812E",
". + @ @ # $ $ $ % &                                                           * = = - $ $ $ ; @ > . ",
". , @ ' ) $ $ ! ~ = {                                                         = = = ] $ $ $ ^ @ / . ",
". ( @ _ $ $ $ & = = *                                                         = = = : $ $ $ < @ [ . ",
". ( @ } $ $ $ ~ = = =                                                       | = = = 1 $ $ $ 2 @ 3 . ",
". 4 @ 5 $ $ $ 6 = = =                                                       7 = = = 8 $ $ $ 2 @ 9 . ",
". 0 @ a $ $ $ b = = =                                                       7 = = = c $ $ $ d @ e . ",
". , @ f $ $ $ g = = =                                                       7 = = = % $ $ $ h @ e . ",
". + @ i $ $ $ $ j = =                                                       k = = = ] $ $ $ l @ 9 . ",
". . m n $ $ $ $ o = =                                                         = = = p $ $ $ q @ r . ",
". . s t $ $ $ $ u = =                                                         = = = = % $ $ v @ w . ",
". . x y $ $ $ z A = = B                                                       = = = = 1 $ $ C @ D . ",
". . E F $ $ $ G = = = *                                                       = = = = H $ $ I @ J . ",
". . K } $ $ $ L = = = M                                                       = = = = ] $ $ N @ 4 . ",
". . O P $ $ $ o = = =                                                         = = = = Q $ $ R @ S . ",
". . T U $ $ $ V = = =                                                         = = = = W $ $ } @ , . ",
". . X v $ $ $ Y = = =                                                         = = = = ] $ $ Z @ ` . ",
". . X l $ $ $ Y = = =                                                         = = = = : $ $ 5 @ ` . ",
". .  ...$ $ $ Y = = =                                                         = = = = 1 $ $ n @ +.. ",
". .  .' $ $ $ V = = =                                                         = = = @.$ $ $ f #.. . ",
". . $.%.$ $ $ & = = =                                                       &.= = = Y $ $ $ n *.. . ",
". . X ' $ $ $ =.= = =                                                       7 = = = H $ $ $ n *.. . ",
". . K ..$ $ $ -.= = =                                                       M = = = : $ $ $ ;.s . . ",
". . >.; $ $ $ o = = = 7                                                     = = = = : $ $ $ ,.x . . ",
". . E '.$ $ $ u = = = {                                                     { = = = ).$ $ $ !.~.. . ",
". . E {.$ $ $ ].= = = =                                                     7 = = = ^.$ $ $ /.(.. . ",
". . x _.$ $ $ ^.= = = &.                                                    * = = = ].$ $ $ U :.. . ",
". . <.[.$ $ $ }.= = = {                                                     M = = = o $ $ $ v |.. . ",
". . s y $ $ $ H = = = 7                                                     7 = = = 1.$ $ $ h >.. . ",
". . *.t $ $ $ 2.= = = *                                                       = = = -.$ $ $ 3.4.. . ",
". . 5.6.$ $ $ H = = = {                                                       = = = -.$ $ $ %. .. . ",
". . 7.f $ $ $ Y = = = &.                                                      = = = =.$ $ $ %.$.. . ",
". . @ n $ $ $ 8.= = =                                                         = = = Y $ $ $ 3.$.. . ",
". +.@ n $ $ 9.= = = =                                                         = = = 0.$ $ $ a.b.. . ",
". c.@ 5 $ $ d.= = = =                                                         = = = Y $ $ $ ; $.. . ",
". , @ !.$ $ ] = = = =                                                         = = = V $ $ $ '. .. . ",
". S @ } $ $ W = = = =                                                         = = = =.$ $ $ _ X . . ",
". e.@ /.$ $ W = = = =                                                         = = = 1.$ $ $ P X . . ",
". 0 @ {.$ $ ] = = = =                                                       M = = = Q $ $ $ f.O . . ",
". g.@ h.$ $ d.= = = =                                                       = = = = i.$ $ $ !.j.. . ",
". k.@ v $ $ 1 = = = =                                                       B = = ~ $ $ $ $ Z l.. . ",
". m.@ q $ $ % = = = =                                                         = = ].$ $ $ $ ;.s . . ",
". 3 @ q $ $ $ p = = =                                                         = = u $ $ $ $ f 7.. . ",
". n.@ l $ $ $ ] = = = k                                                       = = p $ $ $ $ f @ + . ",
". o.@ h $ $ $ % = = = &.                                                      = = = ! $ $ $ f @ , . ",
". e @ a.$ $ $ c = = = 7                                                       = = = u $ $ $ p.@ e.. ",
". e @ 3.$ $ $ 9.= = = k                                                       = = = 6 $ $ $ 5 @ ( . ",
". 9 @ q.$ $ $ 1 = = = k                                                       = = = ~ $ $ $ f.@ S . ",
". r @ @ $ $ $ H = = =                                                         { = = =.$ $ $ _ @ r.. ",
". w @ ^ $ $ $ ] = = =                                                         { = s.% $ $ $ %.@ ` . ",
". > @ l $ $ $ - = = M                                                           & % $ $ $ t.@ @ u.. "};
