/* XPM */
static char * drawing_right_down_xpm[] = {
"50 50 133 2",
"  	c None",
". 	c #4D2B0C",
"+ 	c #4E2B0C",
"@ 	c #58300E",
"# 	c #60350F",
"$ 	c #45591F",
"% 	c #425E21",
"& 	c #557A2C",
"* 	c #5A822E",
"= 	c #59310E",
"- 	c #435D20",
"; 	c #547A2B",
"> 	c #5B320E",
", 	c #425D21",
"' 	c #55792B",
") 	c #4C2B0B",
"! 	c #5C330E",
"~ 	c #54792A",
"{ 	c #4E2A0B",
"] 	c #5D340E",
"^ 	c #435C20",
"/ 	c #54782B",
"( 	c #5E340E",
"_ 	c #455A1F",
": 	c #53782A",
"< 	c #5F340F",
"[ 	c #465A1F",
"} 	c #4D2B0B",
"| 	c #46591F",
"1 	c #522D0C",
"2 	c #47581E",
"3 	c #54792B",
"4 	c #46581E",
"5 	c #557A2B",
"6 	c #47561E",
"7 	c #567B2B",
"8 	c #5A320E",
"9 	c #48561E",
"0 	c #567C2B",
"a 	c #49541C",
"b 	c #577D2D",
"c 	c #58300D",
"d 	c #4A521C",
"e 	c #587E2D",
"f 	c #58310D",
"g 	c #4C511B",
"h 	c #587F2D",
"i 	c #4E4E1A",
"j 	c #59802D",
"k 	c #4F4C1A",
"l 	c #504A18",
"m 	c #5A812D",
"n 	c #4F2B0C",
"o 	c #514A18",
"p 	c #425F22",
"q 	c #4D2A0B",
"r 	c #532E0D",
"s 	c #436022",
"t 	c #4E2A0C",
"u 	c #4F4C19",
"v 	c #446122",
"w 	c #4E4D1A",
"x 	c #456223",
"y 	c #4D2A0C",
"z 	c #5A310E",
"A 	c #4C501B",
"B 	c #456222",
"C 	c #4B531C",
"D 	c #466322",
"E 	c #48551D",
"F 	c #456423",
"G 	c #476523",
"H 	c #57300D",
"I 	c #455920",
"J 	c #476623",
"K 	c #56300D",
"L 	c #445B20",
"M 	c #476624",
"N 	c #552E0D",
"O 	c #435C21",
"P 	c #486724",
"Q 	c #542E0D",
"R 	c #496724",
"S 	c #542E0C",
"T 	c #486824",
"U 	c #486725",
"V 	c #47571E",
"W 	c #49561D",
"X 	c #562F0E",
"Y 	c #49541D",
"Z 	c #4A531C",
"` 	c #486624",
" .	c #5C320E",
"..	c #4B511C",
"+.	c #476424",
"@.	c #502C0D",
"#.	c #456322",
"$.	c #552F0D",
"%.	c #4E4D19",
"&.	c #435F21",
"*.	c #5E340F",
"=.	c #542F0D",
"-.	c #522D0D",
";.	c #5B330E",
">.	c #57300E",
",.	c #58310E",
"'.	c #5A310D",
").	c #59320E",
"!.	c #512D0C",
"~.	c #4D4F1A",
"{.	c #5A812E",
"].	c #554316",
"^.	c #577E2C",
"/.	c #5C3B12",
"(.	c #5F3610",
"_.	c #554415",
":.	c #425F21",
"<.	c #49551D",
"[.	c #504B19",
"}.	c #4D4F1B",
"|.	c #46581F",
"1.	c #445C20",
"2.	c #4F4D19",
"3.	c #496825",
"4.	c #466524",
"5.	c #456323",
"6.	c #446222",
"7.	c #577C2C",
"8.	c #587F2C",
"9.	c #577E2D",
"0.	c #59812E",
"a.	c #557B2C",
"b.	c #567C2C",
"                                                                              . + + @ # # # $ % & * ",
"                                                                              + + + = # # # - % ; * ",
"                                                                              + + + > # # # , % ' * ",
"                                                                            ) + + + ! # # # - % ~ * ",
"                                                                            { + + + ] # # # ^ % / * ",
"                                                                            { + + + ( # # # _ % : * ",
"                                                                            { + + + < # # # [ % : * ",
"                                                                            } + + + = # # # | % / * ",
"                                                                              + + + 1 # # # 2 % 3 * ",
"                                                                              + + + + < # # 4 % 5 * ",
"                                                                              + + + + ! # # 6 % 7 * ",
"                                                                              + + + + 8 # # 9 % 0 * ",
"                                                                              + + + + = # # a % b * ",
"                                                                              + + + + c # # d % e * ",
"                                                                              + + + + f # # g % h * ",
"                                                                              + + + + = # # i % j * ",
"                                                                              + + + + > # # k % j * ",
"                                                                              + + + + ! # # l % m * ",
"                                                                              + + + n # # # o p * * ",
"                                                                            q + + + r # # # l s * * ",
"                                                                            { + + + 8 # # # l s * * ",
"                                                                            t + + + > # # # u v * * ",
"                                                                            + + + + > # # # w x * * ",
"                                                                            y + + + z # # # A B * * ",
"                                                                            { + + + = # # # C D * * ",
"                                                                            . + + + f # # # E F * * ",
"                                                                            t + + + @ # # # 2 G * * ",
"                                                                            { + + + H # # # I J * * ",
"                                                                              + + + K # # # L M * * ",
"                                                                              + + + N # # # O P * * ",
"                                                                              + + + Q # # # O R * * ",
"                                                                              + + + S # # # L R * * ",
"                                                                              + + + r # # # I T * * ",
"                                                                              + + + Q # # # 4 U * * ",
"                                                                              + + + Q # # # V U * * ",
"                                                                              + + + N # # # W P * * ",
"                                                                              + + + X # # # Y P * * ",
"                                                                            t + + + f # # # Z ` * * ",
"                    } { t                   { t + { } } . { q               q + + +  .# # # ..+.* * ",
"  + y + + + + + + + + + + + + + + + + + + + + + + + + + + + + + + + + + + + + + + @.# # # # A #.* * ",
"r + + + + + + + + + + + + + + + + + + + + + + + + + + + + + + + + + + + + + + + + = # # # # i v * * ",
"< @.+ + + + + 1 H H @.+ + + + + + + + + + + + + + + + + + + + + + + + + + + + + $.# # # # # %.&.* * ",
"# *.=.@.-.H *.# # # # ;.f X N Q r r =.=.$.$.$.H >.,.'.8 > ).1 + + + + + + + !.'.# # # # # # ~.% {.* ",
"# # # # # # # # # # # # # # # # # # # # # # # # # # # # # # # < > ,.H >.= ] # # # # # # # # V % h * ",
"# # # # # # # # # # # # # # # # # # # # # # # # # # # # # # # # # # # # # # # # # # # # # ].% % ^.* ",
"/.# # # # # # # # # # # # # # # # # # # # # # # # # # # # # # # # # # # # # # # # # # (._.- % :.j * ",
"% O <.A [.[.[.[.[.[.w }.A Z W 2 |.L 1.O L 1.[ 2 <.d A w [.[.[.[.[.[.[.2.w w }.g A Y 6 1.% % % 3.* * ",
"% % % % % % % % :.v x 4.P T T T T T T T T G G G 5.x x 6.v v s % % % % % % % % % % % % % % &.P 7.* * ",
"m h 8.^.^.9.h 0.* * * * * * * * * * * * * * * * * * * * * * * * * j h 9.^.0 a.a.a.a.a.b.h * * * * * ",
"* * * * * * * * * * * * * * * * * * * * * * * * * * * * * * * * * * * * * * * * * * * * * * * * * * "};
