/* XPM */
static char * drawing_up_down_xpm[] = {
"50 50 118 2",
"  	c None",
". 	c #5A822E",
"+ 	c #557B2C",
"@ 	c #54792A",
"# 	c #54782B",
"$ 	c #53762A",
"% 	c #557A2B",
"& 	c #567C2C",
"* 	c #577E2C",
"= 	c #587F2D",
"- 	c #59802D",
"; 	c #59812E",
"> 	c #577D2C",
", 	c #587E2D",
"' 	c #5A812E",
") 	c #425E21",
"! 	c #435F21",
"~ 	c #446122",
"{ 	c #456223",
"] 	c #456322",
"^ 	c #476523",
"/ 	c #486725",
"( 	c #486824",
"_ 	c #436022",
": 	c #425F21",
"< 	c #46591F",
"[ 	c #425D20",
"} 	c #435D21",
"| 	c #445C20",
"1 	c #45591F",
"2 	c #46581F",
"3 	c #47581E",
"4 	c #48561D",
"5 	c #49541C",
"6 	c #4B531C",
"7 	c #4C511B",
"8 	c #4E4E1A",
"9 	c #4F4C1A",
"0 	c #504B19",
"a 	c #524918",
"b 	c #4E4D1A",
"c 	c #4C4F1A",
"d 	c #4B521B",
"e 	c #445B20",
"f 	c #435C21",
"g 	c #455B1F",
"h 	c #49551D",
"i 	c #4A531C",
"j 	c #4D4F1B",
"k 	c #504A18",
"l 	c #504B18",
"m 	c #4C501B",
"n 	c #48551D",
"o 	c #60350F",
"p 	c #60360F",
"q 	c #5C3A11",
"r 	c #5F340F",
"s 	c #5C330E",
"t 	c #5A320E",
"u 	c #59310E",
"v 	c #58300D",
"w 	c #58310D",
"x 	c #5D330E",
"y 	c #58300E",
"z 	c #5B320E",
"A 	c #5B330E",
"B 	c #5D340E",
"C 	c #5E340E",
"D 	c #522D0C",
"E 	c #4E2B0C",
"F 	c #4F2B0D",
"G 	c #532E0D",
"H 	c #5A310E",
"I 	c #59310D",
"J 	c #57300E",
"K 	c #57300D",
"L 	c #552F0D",
"M 	c #542F0E",
"N 	c #542F0D",
"O 	c #542E0D",
"P 	c #57310D",
"Q 	c #5C320E",
"R 	c #5F350F",
"S 	c #5E330F",
"T 	c #572F0D",
"U 	c #512C0D",
"V 	c #4F2C0C",
"W 	c #552E0D",
"X 	c #5E340F",
"Y 	c #502C0D",
"Z 	c #56300D",
"` 	c #4D2B0C",
" .	c #4D2A0C",
"..	c #4C2B0B",
"+.	c #4E2A0B",
"@.	c #4D2B0B",
"#.	c #4E2A0C",
"$.	c #4D2A0B",
"%.	c #522D0D",
"&.	c #562F0E",
"*.	c #58310E",
"=.	c #5A310D",
"-.	c #4F2B0C",
";.	c #522E0C",
">.	c #5C3B12",
",.	c #49561D",
"'.	c #47571E",
").	c #4D4F1A",
"!.	c #49551C",
"~.	c #435C20",
"{.	c #466524",
"].	c #486724",
"^.	c #476624",
"/.	c #466423",
"(.	c #5A812D",
"_.	c #587F2C",
":.	c #577E2D",
"<.	c #54792B",
". . . . . . . . . . . . . . . . . . . . . . . . . . . . . . . . . . . . . . . . . . . . . . . . . . ",
"+ + @ # # # $ # # % + & * * = = - . . . . . . . . . . . . . . . . . . . . . . . . . ; = > * * , = ' ",
") ) ) ) ) ) ) ) ) ) ) ) ) ) ) ) ) ) ) ! ~ ~ ~ { { ] ^ ^ ^ / ( ( ( ( ( ( ( ^ ^ { _ : ) ) ) ) ) ) ) ) ",
"< [ ) } | | 1 2 2 3 4 4 5 6 7 8 9 0 0 a a 0 b c d 5 3 1 | e f | g 2 3 h i 7 j b 0 k l 0 0 0 m n | ) ",
"o o o o o o o o o o o o o o o o o o o o o o o o o o o o o o o o o o o o o o o o o o o o o o o o p q ",
"o o o o o o o o o o o o o o o o o o o o o o o o o o o o o o o o o o o o o o o o o o o o o o o o o o ",
"o o o o o o o o o r s t u v w u t x o o o o o o o o o o o o o o o o o o o o o o o o o o o o o o o o ",
"y u z A B C r u D E E E E E E E E E F G H z t I u J K L L M N O G G G O L P Q R o o o S T U V W X o ",
"E E E E E E E E E E E E E E E E E E E E E E E E E E E E E E E E E E E E E E E Y K Z D E E E E E Y r ",
"E E E E E E E E E E E E E E E E E E E E E E E E E E E E E E E E E E E E E E E E E E E E E E E E E O ",
"` E E E E E E E E E E E E E E E E E E E E E E E E E E E E E E E E E E E E E E E E E E E E E E `  .  ",
"      ..+.+.+...                      +. .` @.@.+. .` @.                  #.$.+.                    ",
"                                                                                                    ",
"                                                                                                    ",
"                                                                                                    ",
"                                                                                                    ",
"                                                                                                    ",
"                                                                                                    ",
"                                                                                                    ",
"                                                                                                    ",
"                                                                                                    ",
"                                                                                                    ",
"                                                                                                    ",
"                                                                                                    ",
"                                                                                                    ",
"                                                                                                    ",
"                                                                                                    ",
"                                                                                                    ",
"                                                                                                    ",
"                                                                                                    ",
"                                                                                                    ",
"                                                                                                    ",
"                                                                                                    ",
"                                                                                                    ",
"                                                                                                    ",
"                                                                                                    ",
"                                                                                                    ",
"                                                                                                    ",
"                    @.$.@.                  $.#.E +.@.@.` +.$.                      +.+.+.+...      ",
"  E  .E E E E E E E E E E E E E E E E E E E E E E E E E E E E E E E E E E E E E E E E E E E E E E ` ",
"O E E E E E E E E E E E E E E E E E E E E E E E E E E E E E E E E E E E E E E E E E E E E E E E E E ",
"r Y E E E E E D K K Y E E E E E E E E E E E E E E E E E E E E E E E E E E E E E E E E E E E E E E E ",
"o r W Y %.K X o o o o A w &.W O G G N N L L L K J *.=.t z u G -.E E E E E E E E E ;.y r C B A z u y ",
"o o o o o o o o o o o o o o o o o o o o o o o o o o o o o o o R s z u w v u H x r o o o o o o o o o ",
"o o o o o o o o o o o o o o o o o o o o o o o o o o o o o o o o o o o o o o o o o o o o o o o o o o ",
">.o o o o o o o o o o o o o o o o o o o o o o o o o o o o o o o o o o o o o o o o o o o o o o o o o ",
") f h m 0 0 0 0 0 0 b j m i ,.3 2 e | f e | 1 '.n d m b 0 0 0 0 0 9 ).7 i !.4 4 2 2 2 1 | | ~.) ) < ",
") ) ) ) ) ) ) ) : ~ { {.].( ( ( ( ( ( ( ( ^.^ ^ /.{ { ~ ~ ~ _ ) ) ) ) ) ) ) ) ) ) ) ) ) ) ) ) ) ) ) ",
"(.= _.* * :.= ; . . . . . . . . . . . . . . . . . . . . . . . . . - = - * * & + + # # # # # # <.+ + ",
". . . . . . . . . . . . . . . . . . . . . . . . . . . . . . . . . . . . . . . . . . . . . . . . . . "};
