/* XPM */
static char * drawing_down_left_up_xpm[] = {
"50 50 145 2",
"  	c None",
". 	c #5A822E",
"+ 	c #59812D",
"@ 	c #587F2D",
"# 	c #577E2C",
"$ 	c #5A812E",
"% 	c #59812E",
"& 	c #577D2C",
"* 	c #587E2D",
"= 	c #507429",
"- 	c #486824",
"; 	c #446122",
"> 	c #425E21",
", 	c #435F21",
"' 	c #456223",
") 	c #456322",
"! 	c #476523",
"~ 	c #486725",
"{ 	c #436022",
"] 	c #425F21",
"^ 	c #4A6A25",
"/ 	c #435D20",
"( 	c #455A1F",
"_ 	c #445C20",
": 	c #455B1F",
"< 	c #46581F",
"[ 	c #48571E",
"} 	c #49541D",
"| 	c #4B521B",
"1 	c #4D4F1A",
"2 	c #4F4D19",
"3 	c #504B19",
"4 	c #514A18",
"5 	c #524818",
"6 	c #4E4D1A",
"7 	c #4D501A",
"8 	c #49551C",
"9 	c #46581E",
"0 	c #45591F",
"a 	c #445B20",
"b 	c #435C21",
"c 	c #47581E",
"d 	c #49551D",
"e 	c #4A531C",
"f 	c #4C511B",
"g 	c #4D4F1B",
"h 	c #504A18",
"i 	c #504B18",
"j 	c #4C501B",
"k 	c #425F22",
"l 	c #5F360F",
"m 	c #60350F",
"n 	c #60360F",
"o 	c #5C3A11",
"p 	c #5F340F",
"q 	c #5D330F",
"r 	c #5C330F",
"s 	c #5C330E",
"t 	c #5D340E",
"u 	c #5B320E",
"v 	c #542F0D",
"w 	c #502C0D",
"x 	c #4E2B0C",
"y 	c #4F2C0C",
"z 	c #532E0D",
"A 	c #5A320E",
"B 	c #5A310D",
"C 	c #59310E",
"D 	c #57300E",
"E 	c #57300D",
"F 	c #552F0D",
"G 	c #542F0E",
"H 	c #542E0D",
"I 	c #57310D",
"J 	c #5C320E",
"K 	c #56300D",
"L 	c #512C0D",
"M 	c #552E0D",
"N 	c #5E340F",
"O 	c #522E0C",
"P 	c #4F4C19",
"Q 	c #5F350F",
"R 	c #4D2B0C",
"S 	c #4D2A0C",
"T 	c #466423",
"U 	c #4E4E1A",
"V 	c #4D2A0B",
"W 	c #4D2B0B",
"X 	c #4E2A0B",
"Y 	c #4E2A0C",
"Z 	c #476624",
"` 	c #58300E",
" .	c #486624",
"..	c #4B521C",
"+.	c #476724",
"@.	c #49531D",
"#.	c #486724",
"$.	c #48561E",
"%.	c #542E0C",
"&.	c #455A20",
"*.	c #476524",
"=.	c #56300E",
"-.	c #49541C",
";.	c #58310E",
">.	c #446222",
",.	c #59320E",
"'.	c #4F4B19",
").	c #5B330E",
"!.	c #446021",
"~.	c #514918",
"{.	c #522D0C",
"].	c #5A812D",
"^.	c #59802E",
"/.	c #567C2C",
"(.	c #5D330E",
"_.	c #557B2C",
":.	c #512C0C",
"<.	c #4C2B0B",
"[.	c #557A2B",
"}.	c #547A2B",
"|.	c #55792C",
"1.	c #58300D",
"2.	c #532E0C",
"3.	c #562F0D",
"4.	c #58310D",
"5.	c #4F2B0C",
"6.	c #5E340E",
"7.	c #5F3610",
"8.	c #554416",
"9.	c #435D21",
"0.	c #554316",
"a.	c #48561D",
"b.	c #47561E",
"c.	c #465A1F",
"d.	c #4A521C",
"e.	c #4F4C1A",
"f.	c #4B531C",
"g.	c #46591F",
"h.	c #577C2C",
"i.	c #496825",
"j.	c #466524",
"k.	c #456323",
"l.	c #59802D",
"m.	c #54782B",
"n.	c #54792B",
". . . . . . . . . . . . . . . . . . . . . . . . . . . . . . . . . . . . . . . . . . . . . . . . . . ",
". . . . . . + @ # # # # @ @ @ @ $ . . . . . . . . . . . . . . . . . . . . . . . . . % @ & # # * @ $ ",
". . % = - ; > > > > > > > > > > > > > , ; ; ; ' ' ) ! ! ! ~ - - - - - - - ! ! ' { ] > > > > > > > > ",
". . ^ > > / ( _ _ _ : < [ } | 1 2 3 3 4 5 3 6 7 | 8 9 0 _ a b _ : < c d e f g 6 3 h i 3 3 3 j d _ > ",
". % k > 3 l m m m m m m m m m m m m m m m m m m m m m m m m m m m m m m m m m m m m m m m m m m n o ",
". # > c m m m m m m m m m m m m m m m m m m m m m m m m m m m m m m m m m m m m m m m m m m m m m m ",
". @ > 1 m m m m m m m m m p q r s t m m m m m m m m m m m m m m m m m m m m m m m m m m m m m m m m ",
". $ > 2 m m m m m m u v w x x x x x y z A u A B C D E F F G v H z z z H F I J m m m m q K L w M N m ",
". . ] 3 m m m m p z x x x x x x x x x x x x x x x x x x x x x x x x x x x x x w D E O x x x x x w p ",
". . ; i m m m m M x x x x x x x x x x x x x x x x x x x x x x x x x x x x x x x x x x x x x x x x H ",
". . ' P m m m Q x x x x x x x x x x x x x x x x x x x x x x x x x x x x x x x x x x x x x x x R S   ",
". . T U m m m u x x x x               V S R W W X S R W                   Y V X                     ",
". . Z g m m m ` x x x                                                                               ",
". .  ...m m m F x x x                                                                               ",
". . +.@.m m m H x x x                                                                               ",
". . #.$.m m m %.x x x                                                                               ",
". . #.< m m m z x x x                                                                               ",
". . ~ &.m m m z x x x                                                                               ",
". . ~ a m m m z x x x                                                                               ",
". . - b m m m H x x x                                                                               ",
". . #._ m m m v x x x                                                                               ",
". . Z ( m m m F x x x                                                                               ",
". . *.0 m m m =.x x x W                                                                             ",
". . T c m m m E x x x S                                                                             ",
". . T -.m m m ;.x x x x                                                                             ",
". . ' | m m m ;.x x x V                                                                             ",
". . >.7 m m m ,.x x x S                                                                             ",
". . ; 2 m m m u x x x X                                                                             ",
". . { '.m m m ).x x x R                                                                             ",
". . !.4 m m m ,.x x x S                                                                             ",
". . , ~.m m m {.x x x X                                                                             ",
". . > h m m N x x x x                                                                               ",
". ].> i m m A x x x x                                                                               ",
". ^.> 3 m m D x x x x                                                                               ",
". @ > P m m E x x x x                                                                               ",
". * > P m m D x x x x                                                                               ",
". & > 2 m m C x x x x                                                                               ",
". /.> U m m (.x x x x                                                                               ",
". _.> g m m m :.x x x X Y                   X Y x X W W R X V                       <.X X X <.      ",
". [.> 7 m m m C x x x x x x x x x x x x x x x x x x x x x x x x x x x x x x x x x x x x x x x x x Y ",
". }.> j m m m m F x x x x x x x x x x x x x x x x x x x x x x x x x x x x x x x x x x x x x x x x x ",
". |.> e m m m m m ` y x x x x x x x x x x x x x x x x x x x x x x x x x x x x x x x x x x x x x x x ",
". }.> [ m m m m m m m J 1.F M v v z 2.v F 3.E D 4.C A A u C z 5.x x x x x x x x x {.C N 6.(.s A C ` ",
". /.> _ 7.m m m m m m m m m m m m m m m m m m m m m m m m m m Q s u C 4.I C A s p m m m m m m m m m ",
". @ > > 8.m m m m m m m m m m m m m m m m m m m m m m m m m m m m m m m m m m m m m m m m m m m m m ",
". . ] > 9.0.m m m m m m m m m m m m m m m m m m m m m m m m m m m m m m m m m m m m m m m m m m m m ",
". .  .> > > 9 U 2 U f ..e d a.b.< c._ _ a _ c.c d d.j 6 3 3 3 3 3 e.U f f.-.a.a.9 < < g._ _ / > > g.",
". . h.i.] > > > ] ; ' j.#.- - - - - - - - ! ! ! k.' ' >.; ; { > > > > > > > > > > > > > > > > > > > ",
". . . . l.* @ % . . . . . . . . . . . . . . . . . . . . . . . . . l.@ l.# # /._._.m.m.m.m.m.m.n._._.",
". . . . . . . . . . . . . . . . . . . . . . . . . . . . . . . . . . . . . . . . . . . . . . . . . . "};
