/* XPM */
static char * drawing_left_up_xpm[] = {
"50 50 141 2",
"  	c None",
". 	c #5A822E",
"+ 	c #5A812E",
"@ 	c #587E2D",
"# 	c #567C2C",
"$ 	c #557A2B",
"% 	c #557B2C",
"& 	c #577E2C",
"* 	c #577D2C",
"= 	c #587F2D",
"- 	c #59802D",
"; 	c #59812E",
"> 	c #577C2C",
", 	c #476624",
"' 	c #425F22",
") 	c #425E21",
"! 	c #435F21",
"~ 	c #446122",
"{ 	c #456223",
"] 	c #456322",
"^ 	c #476523",
"/ 	c #486725",
"( 	c #486824",
"_ 	c #436022",
": 	c #425F21",
"< 	c #496825",
"[ 	c #445C20",
"} 	c #47571E",
"| 	c #4A541C",
"1 	c #4C511B",
"2 	c #4D4F1A",
"3 	c #4E4D1A",
"4 	c #4E4D19",
"5 	c #504B19",
"6 	c #514A18",
"7 	c #524818",
"8 	c #4D501A",
"9 	c #4B521B",
"0 	c #49551C",
"a 	c #46581E",
"b 	c #45591F",
"c 	c #445B20",
"d 	c #435C21",
"e 	c #455B1F",
"f 	c #46581F",
"g 	c #47581E",
"h 	c #49551D",
"i 	c #4A531C",
"j 	c #4D4F1B",
"k 	c #504A18",
"l 	c #504B18",
"m 	c #4C501B",
"n 	c #48551D",
"o 	c #59812D",
"p 	c #564416",
"q 	c #5F3610",
"r 	c #60350F",
"s 	c #60360F",
"t 	c #5C3A11",
"u 	c #564315",
"v 	c #5D330E",
"w 	c #59310E",
"x 	c #58300E",
"y 	c #57300D",
"z 	c #5A320E",
"A 	c #5E340F",
"B 	c #4E4E1A",
"C 	c #502C0C",
"D 	c #4E2B0C",
"E 	c #522D0C",
"F 	c #59320E",
"G 	c #5B320E",
"H 	c #59310D",
"I 	c #57300E",
"J 	c #552F0D",
"K 	c #542F0E",
"L 	c #542F0D",
"M 	c #542E0D",
"N 	c #532E0D",
"O 	c #57310D",
"P 	c #5C320E",
"Q 	c #5F350F",
"R 	c #5E330F",
"S 	c #572F0D",
"T 	c #512C0D",
"U 	c #4F2C0C",
"V 	c #552E0D",
"W 	c #4F4C19",
"X 	c #502C0D",
"Y 	c #56300D",
"Z 	c #5F340F",
"` 	c #58310D",
" .	c #4D2B0C",
"..	c #4D2A0C",
"+.	c #466423",
"@.	c #4B521C",
"#.	c #5B330E",
"$.	c #4D2A0B",
"%.	c #4E2A0B",
"&.	c #4D2B0B",
"*.	c #486624",
"=.	c #49541D",
"-.	c #562F0D",
";.	c #476724",
">.	c #486724",
",.	c #47561E",
"'.	c #455A20",
").	c #532E0C",
"!.	c #455A1F",
"~.	c #476524",
"{.	c #49541C",
"].	c #446222",
"^.	c #5A310E",
"/.	c #4F4D19",
"(.	c #4F4B19",
"_.	c #446021",
":.	c #514918",
"<.	c #4F2B0D",
"[.	c #5A812D",
"}.	c #4F4C1A",
"|.	c #577E2D",
"1.	c #4A521C",
"2.	c #58300D",
"3.	c #557C2C",
"4.	c #48561E",
"5.	c #5C330E",
"6.	c #55792C",
"7.	c #54792A",
"8.	c #54782A",
"9.	c #53772A",
"0.	c #465A1F",
"a.	c #53782A",
"b.	c #445B1F",
"c.	c #5E340E",
"d.	c #54782B",
"e.	c #435D21",
"f.	c #4E2A0C",
"g.	c #54792B",
"h.	c #435D20",
"i.	c #557A2C",
"j.	c #46591F",
". . . . . . . . . . . . . . . . . . . . . . . . . . . . . . . . . . . . . . . . . . . . . . . . . . ",
". . . . + @ # $ % % % % % & * = - . . . . . . . . . . . . . . . . . . . . . . . . . ; = * & & @ = + ",
". . > , ' ) ) ) ) ) ) ) ) ) ) ) ) ) ) ! ~ ~ ~ { { ] ^ ^ ^ / ( ( ( ( ( ( ( ^ ^ { _ : ) ) ) ) ) ) ) ) ",
". . < ) ) ) [ } | 1 1 2 3 3 4 5 5 5 5 6 7 5 3 8 9 0 a b [ c d [ e f g h i 1 j 3 5 k l 5 5 5 m n [ ) ",
". o ' ) d p q r r r r r r r r r r r r r r r r r r r r r r r r r r r r r r r r r r r r r r r r r s t ",
". @ ) ) u r r r r r r r r r r r r r r r r r r r r r r r r r r r r r r r r r r r r r r r r r r r r r ",
". - ) } r r r r r r r r v w x y x z A r r r r r r r r r r r r r r r r r r r r r r r r r r r r r r r ",
". + ) B r r r r r r w C D D D D D D D E F G z H w I y J J K L M N N N M J O P Q r r r R S T U V A r ",
". . : W r r r r r V D D D D D D D D D D D D D D D D D D D D D D D D D D D D D X y Y E D D D D D X Z ",
". . ~ 2 r r r r ` D D D D D D D D D D D D D D D D D D D D D D D D D D D D D D D D D D D D D D D D M ",
". . { 2 r r r r U D D D D D D D D D D D D D D D D D D D D D D D D D D D D D D D D D D D D D D  ...  ",
". . +.@.r r r #.D D D $.              %... .&.&.%... .&.                    %.%.                    ",
". . , i r r r O D D D                                                                               ",
". . *.=.r r r -.D D D                                                                               ",
". . ;.n r r r L D D D                                                                               ",
". . >.,.r r r L D D D                                                                               ",
". . >.g r r r L D D D                                                                               ",
". . / '.r r r ).D D D                                                                               ",
". . / c r r r ).D D D                                                                               ",
". . ( d r r r L D D D                                                                               ",
". . >.[ r r r J D D D                                                                               ",
". . , !.r r r -.D D D                                                                               ",
". . ~.b r r r y D D D &.                                                                            ",
". . +.g r r r I D D D ..                                                                            ",
". . +.{.r r r ` D D D D                                                                             ",
". . { 9 r r r w D D D $.                                                                            ",
". . ].8 r r r ^.D D D ..                                                                            ",
". . ~ /.r r r z D D D %.                                                                            ",
". . _ (.r r r G D D D  .                                                                            ",
". . _.6 r r r z D D D ..                                                                            ",
". . ! :.r r r N D D D %.                                                                            ",
". . ) k r r r <.D D D                                                                               ",
". [.) k r r v D D D D                                                                               ",
". o ) }.r r ^.D D D D                                                                               ",
". = ) 2 r r w D D D D                                                                               ",
". @ ) m r r ` D D D D                                                                               ",
". |.) 1.r r 2.D D D D                                                                               ",
". * ) {.r r w D D D D                                                                               ",
". 3.) 4.r r ^.D D D D                                                                               ",
". % ) } r r 5.D D D D                                                                               ",
". 6.) g r r Z D D D D                                                                               ",
". 7.) a r r r E D D D                                                                               ",
". 8.) b r r r w D D D &.                                                                            ",
". 9.) 0.r r r Z D D D %.                                                                            ",
". a.) b.r r r c.D D D &.                                                                            ",
". a.) c r r r 5.D D D &.                                                                            ",
". d.) e.r r r 5.D D D f.                                                                            ",
". g.) ) r r r z D D D                                                                               ",
". $ ) h.r r r w D D D                                                                               ",
". i.) j.r r r x D D f.                                                                              "};
