/* XPM */
static char * drawing_up_right_down_left_xpm[] = {
"50 50 181 2",
"  	c None",
". 	c #5A822E",
"+ 	c #5A812E",
"@ 	c #567C2C",
"# 	c #53762A",
"$ 	c #4F7228",
"% 	c #4F7128",
"& 	c #517529",
"* 	c #54782B",
"= 	c #577C2C",
"- 	c #59812D",
"; 	c #59812E",
"> 	c #587F2D",
", 	c #577D2C",
"' 	c #557C2B",
") 	c #4C6C26",
"! 	c #436022",
"~ 	c #425E21",
"{ 	c #435F21",
"] 	c #446122",
"^ 	c #456223",
"/ 	c #456322",
"( 	c #476523",
"_ 	c #486725",
": 	c #486824",
"< 	c #425F21",
"[ 	c #425F22",
"} 	c #496825",
"| 	c #567D2C",
"1 	c #46591F",
"2 	c #4A531C",
"3 	c #48561D",
"4 	c #455A1F",
"5 	c #46581F",
"6 	c #48571E",
"7 	c #48551D",
"8 	c #4A521C",
"9 	c #4D4F1A",
"0 	c #4E4D19",
"a 	c #504B19",
"b 	c #514A18",
"c 	c #524818",
"d 	c #4E4D1A",
"e 	c #4D501A",
"f 	c #4B521B",
"g 	c #49551C",
"h 	c #46581E",
"i 	c #45591F",
"j 	c #445C20",
"k 	c #445B20",
"l 	c #47571E",
"m 	c #4A541D",
"n 	c #4C511B",
"o 	c #4F4D19",
"p 	c #4E4E1A",
"q 	c #47581E",
"r 	c #476724",
"s 	c #60360F",
"t 	c #60350F",
"u 	c #564315",
"v 	c #435D21",
"w 	c #476524",
"x 	c #603610",
"y 	c #554415",
"z 	c #524817",
"A 	c #5E330F",
"B 	c #5A320E",
"C 	c #59310E",
"D 	c #58300D",
"E 	c #58310D",
"F 	c #5D330E",
"G 	c #5F3610",
"H 	c #557C2C",
"I 	c #5A3C12",
"J 	c #58310E",
"K 	c #502C0D",
"L 	c #4E2B0C",
"M 	c #4F2B0D",
"N 	c #532E0D",
"O 	c #5B320E",
"P 	c #5A310E",
"Q 	c #58300E",
"R 	c #57300D",
"S 	c #562F0D",
"T 	c #552F0D",
"U 	c #542F0D",
"V 	c #56300D",
"W 	c #5B330E",
"X 	c #47561E",
"Y 	c #557A2B",
"Z 	c #425D21",
"` 	c #4F2C0C",
" .	c #49541D",
"..	c #532E0C",
"+.	c #557A2C",
"@.	c #445B1F",
"#.	c #59310D",
"$.	c #4C501B",
"%.	c #557B2B",
"&.	c #466423",
"*.	c #4D2A0B",
"=.	c #4E2A0B",
"-.	c #4D2A0C",
";.	c #4D2B0C",
">.	c #4D2B0B",
",.	c #502D0C",
"'.	c #4D4F1B",
").	c #476624",
"!.	c #435C21",
"~.	c #5C330E",
"{.	c #567C2B",
"].	c #486624",
"^.	c #577E2C",
"/.	c #5E3810",
"(.	c #552E0D",
"_.	c #4F4C19",
":.	c #587F2C",
"<.	c #486724",
"[.	c #5D3A11",
"}.	c #542E0D",
"|.	c #59802D",
"1.	c #5B3C12",
"2.	c #57310D",
"3.	c #4F4B19",
"4.	c #542E0C",
"5.	c #504B18",
"6.	c #5A812D",
"7.	c #5C3B12",
"8.	c #5F340F",
"9.	c #532D0D",
"0.	c #504A18",
"a.	c #4E2A0C",
"b.	c #456222",
"c.	c #49541C",
"d.	c #4B531C",
"e.	c #466322",
"f.	c #456423",
"g.	c #446222",
"h.	c #57300E",
"i.	c #455920",
"j.	c #476623",
"k.	c #446021",
"l.	c #514918",
"m.	c #496724",
"n.	c #587E2D",
"o.	c #4B511C",
"p.	c #49551D",
"q.	c #53782A",
"r.	c #4B521C",
"s.	c #52762A",
"t.	c #517429",
"u.	c #5F3710",
"v.	c #5E340E",
"w.	c #476424",
"x.	c #507329",
"y.	c #5F370F",
"z.	c #4F2B0C",
"A.	c #5F350F",
"B.	c #4F4C1A",
"C.	c #507328",
"D.	c #527629",
"E.	c #5F360F",
"F.	c #5C320E",
"G.	c #542F0E",
"H.	c #55792C",
"I.	c #5C3A11",
"J.	c #544516",
"K.	c #554316",
"L.	c #564215",
"M.	c #554416",
"N.	c #544616",
"O.	c #534717",
"P.	c #574115",
"Q.	c #5A3D12",
"R.	c #5D3A10",
"S.	c #5F3510",
"T.	c #54792B",
"U.	c #465A1F",
"V.	c #435E20",
"W.	c #4A6A25",
"X.	c #466524",
". . . . . . . . . . . . . . . . . . . . . . . . . . . . . . . . . . . . . . . . . . . . . . . . . . ",
". . . . . . + @ # $ % % % % & * = - . . . . . . . . . . . . . . . . . . . . . . . . ; > , - . . . . ",
". . . . ' ) ! ~ ~ ~ ~ ~ ~ ~ ~ ~ ~ ~ ~ { ] ] ] ^ ^ / ( ( ( _ : : : : : : : ( ( ^ ! < ~ ~ ~ [ } | . . ",
". . . % [ ~ 1 2 3 4 5 5 6 7 8 9 0 a a b c a d e f g h i j k j j i 5 l 3 m 2 n n d o p q ~ ~ ~ r . . ",
". . * < ~ d s t t t t t t t t t t t t t t t t t t t t t t t t t t t t t t t t t t t t t u v ~ < . . ",
". . w ~ 1 x t t t t t t t t t t t t t t t t t t t t t t t t t t t t t t t t t t t t t t t y ~ ~ > . ",
". + < ~ z t t t t t A B C D E C B F t t t t t t t t t t t t t t t t t t t t t t t t t t t G k ~ H . ",
". + ~ ~ I t t t J K L L L L L L L L M N C O P C C D Q R S T U N N U U U V J W t t t t t t t X ~ Y . ",
". . < Z G t t J L L L L L L L L L L L L L L L L L L L L L L L L L L L L L L L ` Q t t t t t  .~ Y . ",
". . ] j t t t ..L L L L L L L L L L L L L L L L L L L L L L L L L L L L L L L L L T t t t t n ~ +.. ",
". . ^ @.t t t T L L L L L L L L L L L L L L L L L L L L L L L L L L L L L L L L L L #.t t t $.~ %.. ",
". . &.k t t t P L L L *.              =.-.;.>.>.=.-.;.>.                    =.L L L ,.t t t '.~ ' . ",
". . ).!.t t t C L L L                                                         L L L L ~.t t 9 ~ {.. ",
". . ].~ t t t V L L L                                                         L L L L C t t p ~ ^.. ",
". . r ~ /.t t (.L L L                                                         L L L L Q t t _.~ :.. ",
". . <.~ [.t t }.L L L                                                         L L L L V t t a ~ |.. ",
". . <.~ 1.t t N L L L                                                         L L L L 2.t t 3.~ - . ",
". . _ ~ I t t 4.L L L                                                         L L L L O t t 5.~ 6.. ",
". . _ ~ 7.t t N L L L                                                         L L L L 8.t t b [ . . ",
". . : Z G t t }.L L L                                                       *.L L L 9.t t t 0.! . . ",
". . <.j t t t (.L L L                                                       =.L L L P t t t 0.! . . ",
". . ).4 t t t S L L L                                                       a.L L L O t t t _.] . . ",
". . w i t t t S L L L =.                                                    L L L L B t t t d ^ . . ",
". . &.q t t t Q L L L -.                                                    -.L L L P t t t $.b.. . ",
". . &.c.t t t D L L L L                                                     =.L L L C t t t d.e.. . ",
". . ^ f t t t C L L L *.                                                    ;.L L L D t t t 7 f.. . ",
". . g.e t t t P L L L -.                                                    a.L L L h.t t t q ( . . ",
". . ] o t t t P L L L =.                                                    =.L L L S t t t i.j.. . ",
". . ! 3.t t t O L L L ;.                                                      L L L T t t t k ).. . ",
". . k.b t t t B L L L -.                                                      L L L (.t t t j <.. . ",
". . { l.t t t N L L L *.                                                      L L L U t t t !.m.. . ",
". . ~ 0.t t t M L L L                                                         L L L N t t t k m.. . ",
". + ~ b t t F L L L L                                                         L L L N t t t 4 : . . ",
". n.~ d t t P L L L L                                                         L L L N t t t 1 _ . . ",
". , ~ o.t t C L L L L                                                         L L L N t t t X _ . . ",
". Y ~ 7 t t E L L L L                                                         L L L U t t t p.<.. . ",
". q.~ i t t J L L L L                                                         L L L S t t t r.<.. . ",
". s.~ v t t P L L L L                                                       >.L L L D t t t e ].. . ",
". t.~ ~ u.t v.L L L L ;.>.                  *.a.L =.>.>.;.=.*.              L L L L O t t t p w.. . ",
". x.~ ~ y.t t (.L L L L L L L L L L L L L L L L L L L L L L L L L L L L L L L L L z.A.t t t B./ . . ",
". x.~ ~ s t t A.U L L L L L L L L L L L L L L L L L L L L L L L L L L L L L L L L T t t t t a ] . . ",
". C.~ ~ t t t t t C K L L L L L L L L L L L L L L L L L L L L L L L L L L L L L N A.t t t t o < . . ",
". D.~ ~ E.t t t t t t F.C R U U U U 4.U T S R h.D C B B O B 4.z.L L L L L K G.W t t t t t t d ~ + . ",
". H.~ ~ I.t t t t t t t t t t t t t t t t t t t t t t t t t t t v.F ~.A A.t t t t t t t t t 9 ~ > . ",
". |.< ~ J.t t t t t t t t t t t t t t t t t t t t t t t t t t t t t t t t t t t t t t t t t q ~ , . ",
". . : ~ k c K.L.M.N.z z z z O.J.P.Q.R.S.t t t t t t t t t t t t t t t t t t t t t t t t y.a ~ [ + . ",
". . T.< ~ ~ ~ ~ ~ ~ ~ ~ ~ ~ ~ ~ ~ ~ ~ ~ k j U.q p.8 $.d a a a a a _.9 f  .l 5 j j j j 4 V.~ ~ W.. . ",
". . . t.k.~ ~ ~ < ] ^ X.<.: : : : : : : : ).( ( &.^ ^ ] ] ] ! ~ ~ ~ ~ ~ ~ ~ ~ ~ ~ ~ ~ ~ ^ } & 6.. . ",
". . . . |.' , ; . . . . . . . . . . . . . . . . . . . . . . . . . . |.> > > ^.^.^.^.> + . . . . . . ",
". . . . . . . . . . . . . . . . . . . . . . . . . . . . . . . . . . . . . . . . . . . . . . . . . . "};
