/* XPM */
static char * drawing_up_right_down_xpm[] = {
"50 50 155 2",
"  	c None",
". 	c #5A822E",
"+ 	c #557B2C",
"@ 	c #54792A",
"# 	c #54782B",
"$ 	c #53762A",
"% 	c #557A2B",
"& 	c #567C2C",
"* 	c #577E2C",
"= 	c #587F2D",
"- 	c #59802D",
"; 	c #59812E",
"> 	c #577D2C",
", 	c #59812D",
"' 	c #425E21",
") 	c #435F21",
"! 	c #446122",
"~ 	c #456223",
"{ 	c #456322",
"] 	c #476523",
"^ 	c #486725",
"/ 	c #486824",
"( 	c #436022",
"_ 	c #425F21",
": 	c #425F22",
"< 	c #496825",
"[ 	c #577C2C",
"} 	c #46591F",
"| 	c #425D20",
"1 	c #435C21",
"2 	c #445C20",
"3 	c #46581F",
"4 	c #46581E",
"5 	c #48561D",
"6 	c #49541C",
"7 	c #4B531C",
"8 	c #4C511B",
"9 	c #4E4E1A",
"0 	c #4F4C1A",
"a 	c #504B19",
"b 	c #514A18",
"c 	c #524818",
"d 	c #4E4D1A",
"e 	c #4D501A",
"f 	c #4B521B",
"g 	c #49551C",
"h 	c #45591F",
"i 	c #445B20",
"j 	c #47571E",
"k 	c #4A541D",
"l 	c #4A531C",
"m 	c #4F4D19",
"n 	c #476724",
"o 	c #60350F",
"p 	c #564315",
"q 	c #435D21",
"r 	c #554416",
"s 	c #5F340F",
"t 	c #5C330E",
"u 	c #5A320E",
"v 	c #59310E",
"w 	c #57310D",
"x 	c #58310D",
"y 	c #5D330E",
"z 	c #5F3610",
"A 	c #557C2C",
"B 	c #58300E",
"C 	c #5E340E",
"D 	c #5E340F",
"E 	c #522D0C",
"F 	c #4E2B0C",
"G 	c #4F2B0D",
"H 	c #532E0D",
"I 	c #5B320E",
"J 	c #5A310E",
"K 	c #58300D",
"L 	c #57310E",
"M 	c #57300D",
"N 	c #552F0D",
"O 	c #542F0D",
"P 	c #56300D",
"Q 	c #58310E",
"R 	c #5B330E",
"S 	c #4F2C0C",
"T 	c #4A541C",
"U 	c #557A2C",
"V 	c #4D2B0C",
"W 	c #4C501B",
"X 	c #557B2B",
"Y 	c #4D2B0B",
"Z 	c #4E2A0B",
"` 	c #4D2A0C",
" .	c #512D0C",
"..	c #4D4F1B",
"+.	c #557C2B",
"@.	c #5D340E",
"#.	c #4D4F1A",
"$.	c #567C2B",
"%.	c #57300E",
"&.	c #4F4C19",
"*.	c #587F2C",
"=.	c #572F0D",
"-.	c #4F4B19",
";.	c #504B18",
">.	c #5A812D",
",.	c #4D2A0B",
"'.	c #532D0D",
").	c #504A18",
"!.	c #4E2A0C",
"~.	c #59320E",
"{.	c #456222",
"].	c #466322",
"^.	c #48551D",
"/.	c #456423",
"(.	c #47581E",
"_.	c #562F0D",
":.	c #455920",
"<.	c #476623",
"[.	c #476624",
"}.	c #552E0D",
"|.	c #486724",
"1.	c #496724",
"2.	c #532E0C",
"3.	c #455B1F",
"4.	c #47561E",
"5.	c #49541D",
"6.	c #4B511C",
"7.	c #4C4F1A",
"8.	c #486624",
"9.	c #476424",
"0.	c #4F2B0C",
"a.	c #5F350F",
"b.	c #542E0D",
"c.	c #502C0D",
"d.	c #522D0D",
"e.	c #5D340F",
"f.	c #5C330F",
"g.	c #562F0E",
"h.	c #542E0C",
"i.	c #542F0E",
"j.	c #5A812E",
"k.	c #5E330F",
"l.	c #5C3B12",
"m.	c #5F370F",
"n.	c #49561D",
"o.	c #465A1F",
"p.	c #49551D",
"q.	c #4A521C",
"r.	c #455A1F",
"s.	c #435E20",
"t.	c #4A6A25",
"u.	c #466524",
"v.	c #466423",
"w.	c #517529",
"x.	c #577E2D",
". . . . . . . . . . . . . . . . . . . . . . . . . . . . . . . . . . . . . . . . . . . . . . . . . . ",
"+ + @ # # # $ # # % + & * * = = - . . . . . . . . . . . . . . . . . . . . . . . . . ; = > , . . . . ",
"' ' ' ' ' ' ' ' ' ' ' ' ' ' ' ' ' ' ' ) ! ! ! ~ ~ { ] ] ] ^ / / / / / / / ] ] ~ ( _ ' ' ' : < [ . . ",
"} | ' 1 2 2 } 3 3 4 5 5 6 7 8 9 0 a a b c a d e f g 4 h 2 i 2 2 h 3 j 5 k l 8 8 d m d j ' ' ' n . . ",
"o o o o o o o o o o o o o o o o o o o o o o o o o o o o o o o o o o o o o o o o o o o o p q ' _ . . ",
"o o o o o o o o o o o o o o o o o o o o o o o o o o o o o o o o o o o o o o o o o o o o o r ' ' = . ",
"o o o o o o o o o s t u v w x v u y o o o o o o o o o o o o o o o o o o o o o o o o o o o z i ' A . ",
"B v u t y C D v E F F F F F F F F F G H v I J u v K L M N N O H H O O O P Q R o o o o o o o j ' % . ",
"F F F F F F F F F F F F F F F F F F F F F F F F F F F F F F F F F F F F F F F S B o o o o o T ' % . ",
"F F F F F F F F F F F F F F F F F F F F F F F F F F F F F F F F F F F F F F F F F N o o o o 8 ' U . ",
"V F F F F F F F F F F F F F F F F F F F F F F F F F F F F F F F F F F F F F F F F F v o o o W ' X . ",
"      Y Z Z Z Y                       Z ` V Y Y Z ` V Y                     Z F F F  .o o o ..' +.. ",
"                                                                              F F F F @.o o #.' $.. ",
"                                                                              F F F F v o o 9 ' * . ",
"                                                                              F F F F %.o o &.' *.. ",
"                                                                              F F F F =.o o a ' - . ",
"                                                                              F F F F w o o -.' , . ",
"                                                                              F F F F I o o ;.' >.. ",
"                                                                              F F F F s o o b : . . ",
"                                                                            ,.F F F '.o o o ).( . . ",
"                                                                            Z F F F J o o o ).( . . ",
"                                                                            !.F F F I o o o &.! . . ",
"                                                                            F F F F u o o o d ~ . . ",
"                                                                            ` F F F ~.o o o W {.. . ",
"                                                                            Z F F F v o o o 7 ].. . ",
"                                                                            V F F F K o o o ^./.. . ",
"                                                                            !.F F F M o o o (.] . . ",
"                                                                            Z F F F _.o o o :.<.. . ",
"                                                                              F F F N o o o i [.. . ",
"                                                                              F F F }.o o o 1 |.. . ",
"                                                                              F F F H o o o 1 1.. . ",
"                                                                              F F F H o o o i 1.. . ",
"                                                                              F F F 2.o o o 3./ . . ",
"                                                                              F F F H o o o } ^ . . ",
"                                                                              F F F H o o o 4.^ . . ",
"                                                                              F F F O o o o 5.|.. . ",
"                                                                              F F F _.o o o 6.|.. . ",
"                                                                            Y F F F K o o o 7.8.. . ",
"                    Y ,.Y                   ,.!.F Z Y Y V Z ,.              F F F F I o o o 9 9.. . ",
"  V ` F F F F F F F F F F F F F F F F F F F F F F F F F F F F F F F F F F F F F F 0.a.o o o 0 { . . ",
"b.F F F F F F F F F F F F F F F F F F F F F F F F F F F F F F F F F F F F F F F F N o o o o a ! . . ",
"s c.F F F F F '.P %.c.F F F F F F F F F F F F F F F F F F F F F F F F F F F F F H a.o o o o &.) . . ",
"o s }.c.d.P e.o o o o f.x g.}.b.H H O O N N g.=.%.v ~.I I u h.0.F F F F F c.i.R o o o o o o d ' j.. ",
"o o o o o o o o o o o o o o o o o o o o o o o o o o o o o o o o C y t k.a.o o o o o o o o o #.' = . ",
"o o o o o o o o o o o o o o o o o o o o o o o o o o o o o o o o o o o o o o o o o o o o o o j ' > . ",
"l.o o o o o o o o o o o o o o o o o o o o o o o o o o o o o o o o o o o o o o o o o o o m.a ' : j.. ",
"' 1 ^.8 a a a a a a d ..W l n.(.3 i 2 1 i 2 o.(.p.q.W d a a a a a &.#.f 5.j 3 2 2 2 2 r.s.' ' t.. . ",
"' ' ' ' ' ' ' ' _ ! ~ u.|./ / / / / / / / [.] ] v.~ ~ ! ! ! ( ' ' ' ' ' ' ' ' ' ' ' ' ' ~ < w.>.. . ",
">.= *.* * x.= ; . . . . . . . . . . . . . . . . . . . . . . . . . . - = = = * * * * = j.. . . . . . ",
". . . . . . . . . . . . . . . . . . . . . . . . . . . . . . . . . . . . . . . . . . . . . . . . . . "};
