/* XPM */
static char * drawing_left_up_right_xpm[] = {
"50 50 157 2",
"  	c None",
". 	c #5A822E",
"+ 	c #5A812E",
"@ 	c #587E2D",
"# 	c #567C2C",
"$ 	c #557A2B",
"% 	c #557B2C",
"& 	c #577E2C",
"* 	c #577D2C",
"= 	c #587F2D",
"- 	c #59802D",
"; 	c #59812E",
"> 	c #577C2C",
", 	c #476624",
"' 	c #425F22",
") 	c #425E21",
"! 	c #435F21",
"~ 	c #446122",
"{ 	c #456223",
"] 	c #456322",
"^ 	c #476523",
"/ 	c #486725",
"( 	c #486824",
"_ 	c #436022",
": 	c #425F21",
"< 	c #4A6B26",
"[ 	c #496825",
"} 	c #445C20",
"| 	c #47571E",
"1 	c #4A541C",
"2 	c #4C511B",
"3 	c #4D4F1A",
"4 	c #4E4D1A",
"5 	c #4E4D19",
"6 	c #504B19",
"7 	c #514A18",
"8 	c #524818",
"9 	c #4D501A",
"0 	c #4B521B",
"a 	c #49551C",
"b 	c #46581E",
"c 	c #45591F",
"d 	c #445B20",
"e 	c #435C21",
"f 	c #455920",
"g 	c #46581F",
"h 	c #48561E",
"i 	c #49531D",
"j 	c #4B521C",
"k 	c #4F4C19",
"l 	c #4D4F1B",
"m 	c #517529",
"n 	c #59812D",
"o 	c #564416",
"p 	c #5F3610",
"q 	c #60350F",
"r 	c #4F4B19",
"s 	c #564315",
"t 	c #5F360F",
"u 	c #435E20",
"v 	c #5D330E",
"w 	c #59310E",
"x 	c #58300E",
"y 	c #57300D",
"z 	c #5A320E",
"A 	c #5E340F",
"B 	c #455B1F",
"C 	c #4E4E1A",
"D 	c #502C0C",
"E 	c #4E2B0C",
"F 	c #522D0C",
"G 	c #59320E",
"H 	c #5B320E",
"I 	c #5A310E",
"J 	c #562F0D",
"K 	c #552F0D",
"L 	c #542F0D",
"M 	c #532E0D",
"N 	c #532E0C",
"O 	c #58310E",
"P 	c #5F350F",
"Q 	c #445B1F",
"R 	c #552E0D",
"S 	c #435C20",
"T 	c #58310D",
"U 	c #542E0C",
"V 	c #577D2D",
"W 	c #4F2C0C",
"X 	c #466423",
"Y 	c #4C511C",
"Z 	c #5B330E",
"` 	c #4D2A0B",
" .	c #4E2A0B",
"..	c #4D2A0C",
"+.	c #4D2B0C",
"@.	c #4D2B0B",
"#.	c #587F2C",
"$.	c #4A531C",
"%.	c #57310D",
"&.	c #502C0D",
"*.	c #486624",
"=.	c #49541D",
"-.	c #476724",
";.	c #48551D",
">.	c #5D340F",
",.	c #486724",
"'.	c #47561E",
").	c #5D330F",
"!.	c #47581E",
"~.	c #4F4D19",
"{.	c #455A20",
"].	c #5E340E",
"^.	c #504A18",
"/.	c #4F2B0C",
"(.	c #542E0D",
"_.	c #455A1F",
":.	c #4E2A0C",
"<.	c #476524",
"[.	c #57300E",
"}.	c #4C501B",
"|.	c #456323",
"1.	c #49541C",
"2.	c #4B531C",
"3.	c #466322",
"4.	c #466424",
"5.	c #446222",
"6.	c #562F0E",
"7.	c #476723",
"8.	c #446021",
"9.	c #514918",
"0.	c #4F2B0D",
"a.	c #5A812D",
"b.	c #4F4C1A",
"c.	c #577E2D",
"d.	c #4A521C",
"e.	c #58300D",
"f.	c #557C2C",
"g.	c #5C330F",
"h.	c #476424",
"i.	c #5C330E",
"j.	c #55792C",
"k.	c #5F340F",
"l.	c #54792A",
"m.	c #56300D",
"n.	c #504B18",
"o.	c #53782A",
"p.	c #53772A",
"q.	c #465A1F",
"r.	c #512D0D",
"s.	c #54782B",
"t.	c #435D21",
"u.	c #54792B",
"v.	c #435D20",
"w.	c #512C0D",
"x.	c #557A2C",
"y.	c #46591F",
"z.	c #5C3B12",
". . . . . . . . . . . . . . . . . . . . . . . . . . . . . . . . . . . . . . . . . . . . . . . . . . ",
". . . . + @ # $ % % % % % & * = - . . . . . . . . . . . . . . . . . . . . . . . . . ; = & ; . . . . ",
". . > , ' ) ) ) ) ) ) ) ) ) ) ) ) ) ) ! ~ ~ ~ { { ] ^ ^ ^ / ( ( ( ( ( ( ( ^ ^ { _ : ) ) ) ) < + . . ",
". . [ ) ) ) } | 1 2 2 3 4 4 5 6 6 6 6 7 8 6 4 9 0 a b c } d e } f g h i j 3 4 6 6 k 4 l b ) ) m . . ",
". n ' ) e o p q q q q q q q q q q q q q q q q q q q q q q q q q q q q q q q q q q q q q q r ) [ . . ",
". @ ) ) s q q q q q q q q q q q q q q q q q q q q q q q q q q q q q q q q q q q q q q q q t u { . . ",
". - ) | q q q q q q q q v w x y x z A q q q q q q q q q q q q q q q q q q q q q q q q q q q B ) + . ",
". + ) C q q q q q q w D E E E E E E E F G H H I w x y J K L L M M M N L J O H P q q q q q q Q ) = . ",
". . : k q q q q q R E E E E E E E E E E E E E E E E E E E E E E E E E E E E E E K P q q q q S ) & . ",
". . ~ C q q q q T E E E E E E E E E E E E E E E E E E E E E E E E E E E E E E E E U q q q q } ) V . ",
". . { 3 q q q q W E E E E E E E E E E E E E E E E E E E E E E E E E E E E E E E E E H q q q B ) * . ",
". . X Y q q q Z E E E `                ...+.@.@. ...+.@.                     .E E E R q q q c ) #.. ",
". . , $.q q q %.E E E                                                         E E E &.q q q | ) @ . ",
". . *.=.q q q J E E E                                                         E E E E P q q =.) - . ",
". . -.;.q q q L E E E                                                         E E E E >.q q 0 ) - . ",
". . ,.'.q q q L E E E                                                         E E E E ).q q 3 ) n . ",
". . ,.!.q q q L E E E                                                         E E E E v q q ~.) ; . ",
". . / {.q q q N E E E                                                         E E E E ].q q ^.) . . ",
". . / d q q q N E E E                                                         E E E /.q q q 7 ' . . ",
". . ( e q q q (.E E E                                                       ` E E E U q q q ^._ . . ",
". . ,.} q q q K E E E                                                        .E E E z q q q ^._ . . ",
". . , _.q q q J E E E                                                       :.E E E H q q q k ~ . . ",
". . <.c q q q y E E E @.                                                    E E E E I q q q 4 { . . ",
". . X !.q q q [.E E E ..                                                    ..E E E G q q q }.|.. . ",
". . X 1.q q q T E E E E                                                      .E E E O q q q 2.3.. . ",
". . { 0 q q q w E E E `                                                     +.E E E x q q q ;.4.. . ",
". . 5.9 q q q I E E E ..                                                    :.E E E y q q q !.^ . . ",
". . ~ ~.q q q z E E E @.                                                     .E E E 6.q q q f <.. . ",
". . _ r q q q H E E E +.                                                      E E E K q q q d 7.. . ",
". . 8.7 q q q z E E E ..                                                      E E E K q q q } / . . ",
". . ! 9.q q q M E E E  .                                                      E E E R q q q e ( . . ",
". . ) ^.q q q 0.E E E                                                         E E E (.q q q d ( . . ",
". a.) ^.q q v E E E E                                                         E E E M q q q B ( . . ",
". n ) b.q q z E E E E                                                         E E E M q q q c ( . . ",
". = ) 3 q q w E E E E                                                         E E E L q q q !./ . . ",
". @ ) }.q q T E E E E                                                         E E E R q q q ;.,.. . ",
". c.) d.q q e.E E E E                                                         E E E 6.q q q $.,.. . ",
". * ) 1.q q w E E E E                                                       @.E E E e.q q q 2 *.. . ",
". f.) h q q I E E E E                                                       +.E E E g.q q q l h.. . ",
". % ) | q q i.E E E E                                                        .E E &.q q q q C ] . . ",
". j.) !.q q k.E E E E                                                         E E x q q q q k ~ . . ",
". l.) b q q q F E E E                                                         E E m.q q q q n.! . . ",
". o.) c q q q w E E E @.                                                      E E F q q q q 7 ) + . ",
". p.) q.q q q k.E E E  .                                                      E E E A q q q 7 ) - . ",
". o.) Q q q q ].E E E @.                                                      E E E y q q q 6 ) c.. ",
". o.) d q q q v E E E @.                                                      E E E r.q q q b.) & . ",
". s.) t.q q q i.E E E :.                                                      E E E &.q q q }.) @ . ",
". u.) ) q q q z E E E                                                         ..E E R q q q ;.) #.. ",
". $ ) v.q q q w E E E                                                         E E w.k.q q q e ) - . ",
". x.) y.q q q x E E :.                                                          (.k.q q q z.) ) ; . "};
