/* XPM */
static char * drawing_up_xpm[] = {
"50 50 92 2",
"  	c None",
". 	c #5A822E",
"+ 	c #52762A",
"@ 	c #527629",
"# 	c #507429",
"$ 	c #507228",
"% 	c #51752A",
"& 	c #54782B",
"* 	c #54792A",
"= 	c #557B2C",
"- 	c #567C2B",
"; 	c #577E2C",
"> 	c #577D2C",
", 	c #587F2D",
"' 	c #59812E",
") 	c #59812D",
"! 	c #54792B",
"~ 	c #557A2C",
"{ 	c #567C2C",
"] 	c #425E21",
"^ 	c #425F21",
"/ 	c #446122",
"( 	c #4F4D19",
"_ 	c #4C511B",
": 	c #4D4F1B",
"< 	c #4E4D1A",
"[ 	c #504B19",
"} 	c #514A18",
"| 	c #524817",
"1 	c #544617",
"2 	c #544516",
"3 	c #564215",
"4 	c #574014",
"5 	c #584014",
"6 	c #583F14",
"7 	c #5A3D13",
"8 	c #5A3E13",
"9 	c #574214",
"0 	c #554416",
"a 	c #544616",
"b 	c #534717",
"c 	c #4D4F1A",
"d 	c #4C501B",
"e 	c #4E4D19",
"f 	c #524918",
"g 	c #534617",
"h 	c #564214",
"i 	c #593E13",
"j 	c #584114",
"k 	c #554415",
"l 	c #524818",
"m 	c #48561E",
"n 	c #60350F",
"o 	c #5F340F",
"p 	c #59310E",
"q 	c #562F0D",
"r 	c #532E0D",
"s 	c #502D0C",
"t 	c #4F2C0C",
"u 	c #4F2B0C",
"v 	c #512D0D",
"w 	c #57300D",
"x 	c #5B320E",
"y 	c #5E340E",
"z 	c #5D340F",
"A 	c #5D330E",
"B 	c #5C330F",
"C 	c #5B330E",
"D 	c #5C320E",
"E 	c #5F350F",
"F 	c #59320E",
"G 	c #58300D",
"H 	c #4E2B0C",
"I 	c #502C0C",
"J 	c #512D0C",
"K 	c #522D0D",
"L 	c #542F0D",
"M 	c #512C0C",
"N 	c #4E2B0D",
"O 	c #56300E",
"P 	c #58310E",
"Q 	c #522E0D",
"R 	c #552F0D",
"S 	c #57300E",
"T 	c #4E2B0B",
"U 	c #4D2B0B",
"V 	c #502C0B",
"W 	c #4D2A0B",
"X 	c #4E2A0B",
"Y 	c #4D2B0C",
"Z 	c #4D2A0C",
"` 	c #4E2A0C",
". . . . . . . . . . . . . . . . . . . . . . . . . . . . . . . . . . . . . . . . . . . . . . . . . . ",
"+ @ # # # # $ # # % + + & & * = = - ; ; > , , , ' . . . . . . . . . . . . . . ) , ; = = = ! & & ~ { ",
"] ] ] ] ] ] ] ] ] ] ] ] ] ] ] ] ] ] ] ] ] ] ] ] ] ] ] ^ / / / / / / / / / / ] ] ] ] ] ] ] ] ] ] ] ] ",
"( _ _ _ : < < ( [ [ [ } | 1 2 3 4 5 6 7 8 5 9 0 a b } [ < c d < e [ f | g 2 3 h 5 8 i 5 5 j k l c m ",
"n n n n n n n n n n n n n n n n n n n n n n n n n n n n n n n n n n n n n n n n n n n n n n n n n n ",
"n n n n n n n n n n n n n n n n n n n n n n n n n n n n n n n n n n n n n n n n n n n n n n n n n n ",
"o n n n n n n o p q r s t u u t v r w x n n n n n o y z A A B x x C x D z E n n n n n n y F G B n n ",
"H H I J K r L u H H H H H H H H H H H H t M t N H H H H H H H H H H H H H H M O A A P Q H H H H R n ",
"H H H H H H H H H H H H H H H H H H H H H H H H H H H H H H H H H H H H H H H H H H H H H H H H H S ",
"T H H H H H H H H H H H H H H H H H H H H H H H H H H H H H H H H H H H H H H H H H H H H H H H U V ",
"    W T T X Y T H         X X         T U Z U H X H Y Z                 X T ` W Y                   ",
"                                                                                                    ",
"                                                                                                    ",
"                                                                                                    ",
"                                                                                                    ",
"                                                                                                    ",
"                                                                                                    ",
"                                                                                                    ",
"                                                                                                    ",
"                                                                                                    ",
"                                                                                                    ",
"                                                                                                    ",
"                                                                                                    ",
"                                                                                                    ",
"                                                                                                    ",
"                                                                                                    ",
"                                                                                                    ",
"                                                                                                    ",
"                                                                                                    ",
"                                                                                                    ",
"                                                                                                    ",
"                                                                                                    ",
"                                                                                                    ",
"                                                                                                    ",
"                                                                                                    ",
"                                                                                                    ",
"                                                                                                    ",
"                                                                                                    ",
"                                                                                                    ",
"                                                                                                    ",
"                                                                                                    ",
"                                                                                                    ",
"                                                                                                    ",
"                                                                                                    ",
"                                                                                                    ",
"                                                                                                    ",
"                                                                                                    ",
"                                                                                                    ",
"                                                                                                    ",
"                                                                                                    "};
